<svg width="708" height="556" viewBox="0 0 708 556" fill="none" xmlns="http://www.w3.org/2000/svg">
<g clip-path="url(#clip0_6_238)">
<path d="M644.465 507.449C630.893 521.98 615.341 534.527 598.269 544.719C597.877 544.96 597.479 545.186 597.079 545.42L569.44 520.957C569.731 520.687 570.052 520.385 570.398 520.052C590.992 500.497 693.229 363.772 700.042 330.478C699.572 333.251 706.189 442.028 644.465 507.449Z" fill="#F0F0F0"/>
<path d="M603.602 549.439C603.079 549.564 602.547 549.68 602.014 549.787L581.279 531.434C581.684 531.293 582.157 531.125 582.699 530.939C591.596 527.788 618.093 518.278 644.463 507.447C672.798 495.803 700.996 482.647 707.061 474.22C705.76 476.178 665.686 535.556 603.602 549.439Z" fill="#F0F0F0"/>
<path d="M644.082 145.58H641.129V64.6862C641.129 58.5379 639.918 52.4497 637.565 46.7694C635.212 41.089 631.764 35.9277 627.416 31.5802C623.068 27.2326 617.907 23.784 612.227 21.4311C606.546 19.0782 600.458 17.8672 594.31 17.8672H422.926C416.777 17.8672 410.689 19.0782 405.009 21.431C399.329 23.7839 394.167 27.2326 389.82 31.5801C385.472 35.9276 382.023 41.0889 379.671 46.7692C377.318 52.4496 376.107 58.5377 376.107 64.6861V508.475C376.107 514.623 377.318 520.711 379.671 526.392C382.023 532.072 385.472 537.233 389.82 541.581C394.167 545.929 399.328 549.377 405.009 551.73C410.689 554.083 416.777 555.294 422.926 555.294H594.31C600.458 555.294 606.546 554.083 612.227 551.73C617.907 549.377 623.068 545.929 627.416 541.581C631.763 537.234 635.212 532.072 637.565 526.392C639.918 520.712 641.129 514.623 641.129 508.475V203.161H644.082V145.58Z" fill="#3F3D56"/>
<path d="M631.163 65.0085V508.151C631.163 512.743 630.258 517.29 628.501 521.532C626.743 525.774 624.167 529.628 620.92 532.874C617.672 536.12 613.817 538.695 609.575 540.451C605.332 542.207 600.785 543.11 596.193 543.108H423.984C419.394 543.108 414.848 542.204 410.607 540.448C406.365 538.691 402.511 536.116 399.265 532.87C396.019 529.624 393.444 525.77 391.688 521.529C389.931 517.288 389.027 512.742 389.027 508.151V65.0085C389.027 60.4178 389.931 55.872 391.688 51.6307C393.444 47.3894 396.019 43.5357 399.265 40.2896C402.511 37.0435 406.365 34.4686 410.607 32.712C414.848 30.9554 419.394 30.0514 423.984 30.0518H444.883C443.857 32.5741 443.467 35.31 443.746 38.0186C444.026 40.7272 444.966 43.3256 446.486 45.5853C448.005 47.845 450.057 49.6968 452.459 50.9778C454.862 52.2587 457.543 52.9296 460.266 52.9314H558.448C561.172 52.934 563.856 52.2659 566.261 50.9862C568.666 49.7065 570.72 47.8544 572.24 45.5934C573.76 43.3324 574.701 40.7319 574.978 38.0215C575.256 35.3111 574.862 32.574 573.832 30.0518H596.193C600.785 30.0501 605.332 30.9531 609.575 32.709C613.817 34.465 617.672 37.0397 620.92 40.2859C624.167 43.5321 626.743 47.3862 628.501 51.6282C630.258 55.8702 631.163 60.4169 631.163 65.0085Z" fill="white"/>
<path d="M577.595 295.289H426.228C423.577 295.286 421.035 294.232 419.16 292.357C417.285 290.482 416.231 287.94 416.228 285.289V280.312C416.231 277.66 417.285 275.118 419.16 273.244C421.035 271.369 423.577 270.315 426.228 270.312H577.595C580.246 270.315 582.788 271.369 584.662 273.244C586.537 275.118 587.592 277.66 587.595 280.312V285.289C587.592 287.94 586.537 290.482 584.662 292.357C582.788 294.232 580.246 295.286 577.595 295.289Z" fill="#F0F0F0"/>
<path d="M577.595 338.196H426.228C423.577 338.193 421.035 337.139 419.16 335.264C417.285 333.389 416.231 330.848 416.228 328.196V323.219C416.231 320.568 417.285 318.026 419.16 316.151C421.035 314.276 423.577 313.222 426.228 313.219H577.595C580.246 313.222 582.788 314.276 584.662 316.151C586.537 318.026 587.592 320.568 587.595 323.219V328.196C587.592 330.848 586.537 333.389 584.662 335.264C582.788 337.139 580.246 338.193 577.595 338.196Z" fill="#F0F0F0"/>
<path d="M585.166 285.692H433.8C431.016 285.689 428.347 284.582 426.379 282.613C424.41 280.645 423.303 277.976 423.3 275.192V270.215C423.303 267.431 424.41 264.762 426.379 262.794C428.347 260.825 431.016 259.718 433.8 259.715H585.166C587.95 259.718 590.619 260.825 592.587 262.794C594.556 264.762 595.663 267.431 595.666 270.215V275.192C595.663 277.976 594.556 280.645 592.587 282.613C590.619 284.582 587.95 285.689 585.166 285.692ZM433.8 261.715C431.546 261.717 429.386 262.614 427.792 264.207C426.199 265.801 425.302 267.961 425.3 270.215V275.192C425.302 277.446 426.199 279.606 427.792 281.2C429.386 282.794 431.546 283.69 433.8 283.692H585.166C587.42 283.69 589.58 282.794 591.174 281.2C592.768 279.606 593.664 277.446 593.666 275.192V270.215C593.664 267.961 592.768 265.801 591.174 264.207C589.58 262.614 587.42 261.717 585.166 261.715H433.8Z" fill="#3F3D56"/>
<path d="M585.166 328.6H433.8C431.016 328.596 428.347 327.489 426.379 325.521C424.41 323.552 423.303 320.883 423.3 318.1V313.122C423.303 310.338 424.41 307.669 426.379 305.701C428.347 303.733 431.016 302.625 433.8 302.622H585.166C587.95 302.625 590.619 303.733 592.587 305.701C594.556 307.669 595.663 310.338 595.666 313.122V318.1C595.663 320.883 594.556 323.552 592.587 325.521C590.619 327.489 587.95 328.596 585.166 328.6ZM433.8 304.622C431.546 304.625 429.386 305.521 427.792 307.114C426.199 308.708 425.302 310.869 425.3 313.122V318.1C425.302 320.353 426.199 322.514 427.792 324.107C429.386 325.701 431.546 326.597 433.8 326.6H585.166C587.42 326.597 589.58 325.701 591.174 324.107C592.768 322.514 593.664 320.353 593.666 318.1V313.122C593.664 310.869 592.768 308.708 591.174 307.114C589.58 305.521 587.42 304.625 585.166 304.622H433.8Z" fill="#3F3D56"/>
<path d="M631.163 65.0085V161.398C615.847 165.428 599.811 165.89 584.288 162.75C568.765 159.609 554.17 152.95 541.625 143.284C529.08 133.618 518.919 121.203 511.925 106.994C504.931 92.7847 501.289 77.1607 501.28 61.3236C501.28 58.4967 501.394 55.6994 501.621 52.9314H558.448C561.172 52.934 563.855 52.2659 566.261 50.9862C568.666 49.7065 570.72 47.8544 572.24 45.5934C573.76 43.3324 574.701 40.7319 574.978 38.0215C575.256 35.3111 574.862 32.574 573.832 30.0518H596.193C600.785 30.0501 605.332 30.9531 609.575 32.709C613.817 34.465 617.672 37.0397 620.92 40.2859C624.167 43.5321 626.743 47.3862 628.501 51.6282C630.258 55.8702 631.163 60.4169 631.163 65.0085Z" fill="#F0F0F0"/>
<path d="M476.041 537.088C476.041 539.12 475.965 541.126 475.801 543.108H423.984C419.394 543.108 414.848 542.204 410.607 540.447C406.365 538.691 402.511 536.116 399.265 532.87C396.019 529.624 393.444 525.77 391.688 521.529C389.931 517.287 389.027 512.742 389.027 508.151V460.751C399.889 459.338 410.927 460.257 421.405 463.446C431.884 466.634 441.562 472.02 449.796 479.243C458.03 486.467 464.629 495.362 469.155 505.336C473.68 515.311 476.028 526.135 476.041 537.088Z" fill="#0157FF"/>
<path d="M58.1214 453.919C59.5774 454.559 61.2279 454.596 62.711 454.021C64.194 453.446 65.3885 452.307 66.0324 450.852L112.712 345.058C113.78 342.637 114.107 339.954 113.65 337.347C113.193 334.741 111.973 332.328 110.145 330.415C108.318 328.501 105.963 327.173 103.38 326.597C100.797 326.022 98.1016 326.226 95.6343 327.182C92.7838 328.271 90.3983 330.314 88.884 332.963C88.6432 333.382 88.4247 333.813 88.2296 334.256L41.5503 440.05C41.2322 440.77 41.0591 441.547 41.0411 442.335C41.0231 443.122 41.1604 443.906 41.4453 444.641C41.7301 445.375 42.1569 446.047 42.7012 446.617C43.2455 447.186 43.8968 447.643 44.6177 447.961L58.1214 453.919Z" fill="#0157FF"/>
<path d="M110.795 388.491L64.6235 378.23L76.0515 347.998C77.9983 340.609 82.529 334.162 88.8218 329.827C95.1146 325.492 102.753 323.556 110.351 324.37L110.795 324.42L110.795 388.491Z" fill="#2F2E41"/>
<path d="M204.055 455.432C202.697 455.429 201.369 455.034 200.231 454.292C199.093 453.551 198.194 452.496 197.643 451.255L150.964 345.461C149.479 342.095 149.341 338.288 150.578 334.823C151.815 331.358 154.333 328.499 157.614 326.834C160.894 325.169 164.688 324.825 168.215 325.872C171.742 326.919 174.733 329.278 176.573 332.464C176.832 332.914 177.067 333.377 177.276 333.851L223.955 439.645C224.705 441.344 224.749 443.271 224.077 445.002C223.406 446.733 222.075 448.126 220.377 448.875L206.415 455.035L206.408 455.02C205.653 455.292 204.857 455.431 204.055 455.432Z" fill="#0157FF"/>
<path d="M139.485 419.103C137.895 419.104 136.37 419.737 135.245 420.862C134.12 421.987 133.487 423.512 133.485 425.103V548.117C133.487 549.707 134.12 551.233 135.245 552.357C136.37 553.482 137.895 554.115 139.485 554.117H154.245C155.836 554.115 157.361 553.482 158.486 552.357C159.611 551.233 160.243 549.707 160.245 548.117V425.103C160.243 423.512 159.611 421.987 158.486 420.862C157.361 419.737 155.836 419.104 154.245 419.103H139.485Z" fill="#0157FF"/>
<path d="M110.293 419.103C108.702 419.104 107.177 419.737 106.052 420.862C104.927 421.987 104.295 423.512 104.293 425.103V548.117C104.295 549.707 104.927 551.233 106.052 552.357C107.177 553.482 108.702 554.115 110.293 554.117H125.053C126.643 554.115 128.169 553.482 129.293 552.357C130.418 551.233 131.051 549.707 131.053 548.117V425.103C131.051 423.512 130.418 421.987 129.293 420.862C128.169 419.737 126.643 419.104 125.053 419.103H110.293Z" fill="#0157FF"/>
<path d="M131.828 290.224C159.995 290.224 182.828 267.39 182.828 239.224C182.828 211.057 159.995 188.224 131.828 188.224C103.662 188.224 80.8281 211.057 80.8281 239.224C80.8281 267.39 103.662 290.224 131.828 290.224Z" fill="#0157FF"/>
<path d="M148.8 260.633C152.106 260.542 156.22 260.427 159.39 258.111C160.334 257.394 161.109 256.478 161.662 255.429C162.215 254.38 162.532 253.223 162.59 252.039C162.647 251.197 162.509 250.353 162.187 249.574C161.864 248.794 161.365 248.1 160.73 247.545C159.074 246.146 156.657 245.818 154.052 246.584L156.751 226.858L154.769 226.587L151.596 249.777L153.251 249.018C155.169 248.138 157.802 247.69 159.439 249.073C159.841 249.434 160.154 249.884 160.354 250.386C160.553 250.888 160.635 251.429 160.591 251.968C160.543 252.85 160.305 253.71 159.894 254.492C159.483 255.273 158.909 255.957 158.21 256.496C155.744 258.298 152.464 258.53 148.744 258.634L148.8 260.633Z" fill="#2F2E41"/>
<path d="M177.321 228.56H166.55V230.56H177.321V228.56Z" fill="#2F2E41"/>
<path d="M143.321 228.56H132.55V230.56H143.321V228.56Z" fill="#2F2E41"/>
<path d="M182.362 456.053L164.006 322.053C163.809 320.616 163.098 319.299 162.005 318.346C160.912 317.392 159.511 316.867 158.061 316.867H144.205C144.263 316.537 144.293 316.202 144.295 315.867V310.867C144.295 309.276 143.663 307.75 142.538 306.625C141.413 305.499 139.887 304.867 138.295 304.867H126.295C124.704 304.867 123.178 305.499 122.053 306.625C120.927 307.75 120.295 309.276 120.295 310.867V315.867C120.297 316.202 120.327 316.537 120.385 316.867H106.53C105.079 316.867 103.678 317.392 102.585 318.346C101.492 319.299 100.782 320.616 100.585 322.053L82.2289 456.053C82.1126 456.902 82.1794 457.765 82.4249 458.586C82.6704 459.407 83.0887 460.166 83.6519 460.811C84.2151 461.457 84.91 461.974 85.6899 462.329C86.4697 462.684 87.3165 462.867 88.1732 462.867H176.417C177.274 462.867 178.121 462.684 178.901 462.329C179.681 461.974 180.375 461.457 180.939 460.811C181.502 460.166 181.92 459.407 182.166 458.586C182.411 457.766 182.478 456.902 182.362 456.053Z" fill="#2F2E41"/>
<path d="M153.795 388.491V324.42L154.24 324.371C161.847 323.557 169.494 325.5 175.791 329.845C182.087 334.19 186.617 340.65 188.556 348.051L199.967 378.231L153.795 388.491Z" fill="#2F2E41"/>
<path d="M129.26 291.816L93.9845 278.124C88.2162 275.885 82.4157 273.714 76.6779 271.398C74.2202 270.542 71.9562 269.207 70.0164 267.472C68.3276 265.684 67.1766 263.457 66.6953 261.045C65.4718 255.874 65.693 250.22 65.7803 244.942C65.848 239.169 66.3231 233.408 67.2021 227.702C68.7425 216.979 72.3602 206.659 77.8523 197.321C87.745 181.09 104.79 168.878 124.395 169.852C133.472 170.303 142.601 173.561 149.345 179.766C150.048 180.607 150.837 181.372 151.7 182.049C152.299 182.274 152.951 182.317 153.575 182.175C154.398 182.122 155.222 182.081 156.046 182.053C158.906 181.933 161.772 182.053 164.612 182.413C169.787 182.972 174.693 185.009 178.742 188.28C182.112 191.179 184.854 195.272 185.137 199.82C185.273 201.908 184.928 203.999 184.128 205.932C183.327 207.866 182.094 209.589 180.522 210.971C176.314 214.517 170.309 213.271 165.261 213.003L146.767 212.024L137.397 211.527C135.468 211.425 135.473 214.425 137.397 214.527L162.302 215.847C166.304 216.059 170.429 216.578 174.434 216.338C177.512 216.199 180.451 215.017 182.768 212.986C184.883 211.042 186.459 208.583 187.342 205.849C188.225 203.115 188.384 200.199 187.804 197.385C186.52 191.247 181.952 186.17 176.598 183.15C169.311 179.04 160.609 178.646 152.457 179.254L153.517 179.693C144.295 169.795 130.169 165.616 116.907 167.078C102.905 168.622 90.451 176.434 81.503 187.116C71.5266 199.025 66.0901 213.875 63.9765 229.145C62.8767 237.39 62.5146 245.716 62.8945 254.025C62.8789 257.69 63.5058 261.328 64.7468 264.776C66.1627 268.132 68.7229 270.877 71.9719 272.522C75.6969 274.321 79.5264 275.894 83.4398 277.233L96.436 282.278L121.964 292.186L128.462 294.708C130.263 295.407 131.043 292.508 129.26 291.816Z" fill="#2F2E41"/>
<path d="M73.7954 189.867C70.7298 189.867 67.733 188.958 65.1841 187.255C62.6351 185.552 60.6485 183.131 59.4753 180.299C58.3021 177.467 57.9952 174.35 58.5932 171.343C59.1913 168.337 60.6675 165.575 62.8352 163.407C65.003 161.239 67.7648 159.763 70.7715 159.165C73.7782 158.567 76.8947 158.874 79.727 160.047C82.5593 161.22 84.98 163.207 86.6832 165.756C88.3863 168.305 89.2954 171.302 89.2954 174.367C89.2908 178.477 87.6563 182.416 84.7505 185.322C81.8447 188.228 77.9049 189.863 73.7954 189.867ZM73.7954 161.867C71.3232 161.867 68.9064 162.6 66.8508 163.974C64.7952 165.347 63.193 167.3 62.2469 169.584C61.3008 171.868 61.0533 174.381 61.5356 176.806C62.0179 179.231 63.2084 181.458 64.9566 183.206C66.7047 184.954 68.932 186.145 71.3568 186.627C73.7816 187.109 76.2949 186.862 78.579 185.916C80.863 184.97 82.8153 183.367 84.1888 181.312C85.5623 179.256 86.2954 176.839 86.2954 174.367C86.2917 171.053 84.9735 167.876 82.6301 165.532C80.2867 163.189 77.1095 161.871 73.7954 161.867Z" fill="#2F2E41"/>
<path d="M332.899 285.923L299.35 260.264L273.691 293.813L307.24 319.472L332.899 285.923Z" fill="#F0F0F0"/>
<path d="M143.295 56.8674C148.596 56.8633 153.824 58.1004 158.561 60.4798C163.298 62.8592 167.411 66.3147 170.573 70.5696L190.163 44.9559L131.384 0L86.4282 58.779L111.762 78.1548C114.297 71.8673 118.654 66.4811 124.273 62.688C129.891 58.8948 136.516 56.8679 143.295 56.8674Z" fill="#F0F0F0"/>
<path d="M707 555.867H1C0.734784 555.867 0.480429 555.762 0.292892 555.574C0.105356 555.387 0 555.132 0 554.867C0 554.602 0.105356 554.348 0.292892 554.16C0.480429 553.973 0.734784 553.867 1 553.867H707C707.265 553.867 707.52 553.973 707.707 554.16C707.895 554.348 708 554.602 708 554.867C708 555.132 707.895 555.387 707.707 555.574C707.52 555.762 707.265 555.867 707 555.867Z" fill="#3F3D56"/>
<path d="M534.687 389.937H462.825C460.174 389.934 457.632 388.879 455.758 387.004C453.883 385.13 452.828 382.588 452.825 379.937V374.959C452.828 372.308 453.883 369.766 455.758 367.891C457.632 366.017 460.174 364.962 462.825 364.959H534.687C537.339 364.962 539.88 366.017 541.755 367.891C543.63 369.766 544.684 372.308 544.687 374.959V379.937C544.684 382.588 543.63 385.13 541.755 387.004C539.88 388.879 537.339 389.934 534.687 389.937Z" fill="#0157FF"/>
<path d="M542.259 380.341H470.397C467.613 380.338 464.944 379.23 462.976 377.262C461.008 375.294 459.9 372.625 459.897 369.841V364.863C459.9 362.079 461.008 359.411 462.976 357.442C464.944 355.474 467.613 354.366 470.397 354.363H542.259C545.043 354.366 547.712 355.474 549.68 357.442C551.649 359.411 552.756 362.079 552.759 364.863V369.841C552.756 372.625 551.649 375.294 549.68 377.262C547.712 379.23 545.043 380.338 542.259 380.341ZM470.397 356.363C468.144 356.366 465.983 357.262 464.389 358.856C462.796 360.449 461.9 362.61 461.897 364.863V369.841C461.9 372.094 462.796 374.255 464.389 375.848C465.983 377.442 468.144 378.338 470.397 378.341H542.259C544.513 378.338 546.674 377.442 548.267 375.848C549.861 374.255 550.757 372.094 550.759 369.841V364.863C550.757 362.61 549.861 360.449 548.267 358.856C546.674 357.262 544.513 356.366 542.259 356.363H470.397Z" fill="#3F3D56"/>
</g>
<defs>
<clipPath id="clip0_6_238">
<rect width="708" height="555.867" fill="white"/>
</clipPath>
</defs>
</svg>
