<svg width="973" height="640" viewBox="0 0 973 640" fill="none" xmlns="http://www.w3.org/2000/svg">
<g clip-path="url(#clip0_6_212)">
<path d="M634.374 279.406C633.254 285.296 631.911 291.126 630.344 296.896C630.174 297.566 629.984 298.226 629.794 298.896H608.004C606.148 298.898 604.369 299.636 603.057 300.948C601.744 302.26 601.006 304.04 601.004 305.896V368.016C600.344 369.246 599.674 370.466 599.004 371.686C595.544 377.986 591.944 384.216 588.264 390.366C528.257 490.322 444.564 573.966 344.574 633.916L350.494 620.556C348.324 620.406 346.144 620.256 343.974 620.106C296.724 616.876 249.314 613.296 203.174 602.676C154.904 591.566 107.684 572.296 69.8542 540.346C32.0139 508.386 4.27412 462.746 0.424022 413.366C-0.859781 396.395 0.856562 379.331 5.49433 362.956C14.364 331.436 33.7443 303.076 61.7043 286.296C105.624 259.946 162.914 265.316 209.214 287.236C255.504 309.146 293.184 345.416 329.974 381.056C292.829 317.358 241.112 263.375 179.064 223.536C158.504 210.376 136.684 198.656 119.204 181.606C101.734 164.566 88.844 140.676 91.9343 116.466C95.4441 89.0057 117.934 68.1657 140.464 52.0957C149.464 45.6757 158.754 39.5857 168.334 33.9857C195.364 18.1457 224.604 6.19566 255.484 1.76566C297.314 -4.24434 342.494 4.87566 374.564 32.3957C410.694 63.4057 425.514 113.416 424.104 161.256C446.364 128.896 480.694 104.126 519.464 103.076C559.714 101.996 597.974 127.426 618.134 162.286C638.284 197.136 641.904 239.856 634.374 279.406Z" fill="#E6E6E6"/>
<path d="M379.716 413.801C403.291 411.725 425.068 409.299 447.912 402.835C470.056 396.569 491.363 386.08 507.127 368.953C524.082 350.531 533.234 326.607 539.691 302.792C543.292 289.514 546.25 276.05 549.041 262.582C552.07 247.968 554.761 233.291 557.114 218.548C561.799 189.203 565.143 159.685 567.147 129.994C567.389 126.39 567.611 122.785 567.813 119.179C567.938 116.954 564.478 116.961 564.353 119.179C562.707 148.445 559.745 177.598 555.468 206.636C551.247 235.166 545.847 263.573 538.996 291.591C533.191 315.327 525.676 339.434 510.79 359.194C496.83 377.723 476.668 389.831 454.898 397.071C432.745 404.438 409.387 407.379 386.238 409.566C383.398 409.835 382.558 410.09 379.716 410.341C377.515 410.534 377.495 413.996 379.716 413.801Z" fill="white"/>
<path d="M7.49135 365.508C37.235 367.158 66.6761 372.346 95.1922 380.962C123.72 389.561 151.135 401.494 176.868 416.514C201.733 431.039 224.816 448.419 245.648 468.3C265.866 487.606 283.885 509.091 299.376 532.362C314.937 555.691 327.833 580.692 337.822 606.895C339.04 610.102 340.213 613.325 341.342 616.565C342.071 618.654 345.415 617.756 344.678 615.646C335.333 588.889 323.013 563.266 307.95 539.258C292.89 515.249 275.215 492.982 255.249 472.867C234.964 452.439 212.388 434.423 187.969 419.175C136.698 387.237 78.5824 367.916 18.3948 362.799C14.7642 362.495 11.1297 362.244 7.49138 362.048C5.26639 361.926 5.27318 365.387 7.49135 365.508Z" fill="white"/>
<path d="M169.269 38.042C188.287 44.0903 206.313 52.899 222.77 64.1862C239.587 75.7984 254.925 89.4191 268.442 104.746C282.687 120.87 295.352 138.324 306.262 156.867C317.834 176.447 327.887 196.885 336.332 218.003C345.028 239.683 352.342 261.893 358.231 284.498C364.216 307.371 368.891 330.567 372.233 353.973C375.559 377.13 377.571 400.458 378.261 423.842C378.956 446.203 378.295 468.586 376.281 490.867C374.44 511.654 371.076 532.278 366.218 552.573C361.904 570.903 355.824 588.772 348.063 605.93C346.265 609.823 344.358 613.664 342.341 617.45C341.294 619.415 344.28 621.165 345.329 619.197C353.905 602.808 360.753 585.572 365.763 567.767C371.383 547.946 375.457 527.719 377.948 507.268C380.71 485.079 382.054 462.738 381.974 440.378C381.925 416.888 380.526 393.42 377.786 370.09C375.045 346.469 370.975 323.022 365.596 299.859C360.23 276.658 353.424 253.814 345.215 231.459C337.304 209.819 327.832 188.782 316.874 168.514C306.437 149.173 294.273 130.815 280.532 113.663C267.483 97.3319 252.585 82.568 236.136 69.6668C220.275 57.264 202.748 47.1541 184.071 39.6342C179.507 37.8176 174.879 36.1747 170.189 34.7055C168.06 34.0357 167.149 37.3749 169.269 38.042Z" fill="white"/>
<path d="M374.504 639.896C511.195 639.896 622.004 635.418 622.004 629.896C622.004 624.373 511.195 619.896 374.504 619.896C237.814 619.896 127.004 624.373 127.004 629.896C127.004 635.418 237.814 639.896 374.504 639.896Z" fill="#E6E6E6"/>
<path d="M593.173 316.685C593.05 317.224 592.97 317.773 592.934 318.325L549.976 343.107L539.535 337.096L528.404 351.668L550.741 367.589L599.749 328.926C601.748 329.666 603.924 329.779 605.989 329.252C608.054 328.724 609.91 327.581 611.309 325.973C612.708 324.365 613.585 322.37 613.822 320.252C614.059 318.134 613.646 315.993 612.638 314.116C611.629 312.238 610.073 310.712 608.176 309.741C606.279 308.769 604.131 308.398 602.018 308.677C599.905 308.956 597.927 309.872 596.347 311.302C594.767 312.732 593.66 314.61 593.173 316.685Z" fill="#FFB8B8"/>
<path d="M495.34 331.889L529.165 355.996L544.293 337.029L511.412 310.647C509.998 309.512 508.366 308.677 506.618 308.195C504.87 307.712 503.041 307.592 501.245 307.841C499.448 308.09 497.722 308.703 496.17 309.643C494.619 310.582 493.276 311.829 492.223 313.306C490.172 316.183 489.349 319.758 489.933 323.243C490.518 326.728 492.463 329.838 495.34 331.889Z" fill="#0157FF"/>
<path d="M425.519 606.957L437.379 610.064L455.009 565.8L437.506 561.213L425.519 606.957Z" fill="#FFB8B8"/>
<path d="M457.365 627.069L420.093 617.303L423.866 602.902L446.738 608.895C450.557 609.896 453.822 612.373 455.815 615.781C457.808 619.19 458.366 623.25 457.365 627.069Z" fill="#2F2E41"/>
<path d="M530.942 615.401L543.011 613.245L540.439 565.668L522.627 568.85L530.942 615.401Z" fill="#FFB8B8"/>
<path d="M568.288 620.294L530.358 627.069L527.74 612.414L551.016 608.257C552.94 607.913 554.913 607.952 556.823 608.371C558.733 608.789 560.541 609.58 562.145 610.698C563.749 611.816 565.117 613.239 566.171 614.885C567.225 616.531 567.945 618.369 568.288 620.294Z" fill="#2F2E41"/>
<path d="M507.177 265.509C510.151 266.233 512.571 269.263 514.024 272.774C515.364 276.461 516.271 280.291 516.728 284.188C517.87 291.445 518.966 299.301 516.605 306.022C513.837 313.899 506.462 318.025 500.066 316.086C493.669 314.147 488.581 306.869 486.843 298.492C485.261 290.027 486.28 281.282 489.768 273.408C491.585 269.271 494.089 265.454 497.418 263.587C499.051 262.6 500.997 262.268 502.865 262.657C504.733 263.046 506.384 264.128 507.486 265.685" fill="#2F2E41"/>
<path d="M524.004 396.896L546.981 602.69L528.004 609.896L493.004 471.896L444.276 598.074L423.504 599.228C423.504 599.228 452.004 402.896 473.126 398.434L524.004 396.896Z" fill="#2F2E41"/>
<path d="M504.705 291.771C518.27 291.771 529.266 280.775 529.266 267.21C529.266 253.646 518.27 242.649 504.705 242.649C491.14 242.649 480.144 253.646 480.144 267.21C480.144 280.775 491.14 291.771 504.705 291.771Z" fill="#FFB8B8"/>
<path d="M515.246 302.075L488.705 298.613C488.705 298.613 471.395 319.385 472.549 355.159C473.703 390.932 469.664 401.895 469.664 401.895L525.004 402.895C517.004 391.895 550.466 328.718 515.246 302.075Z" fill="#0157FF"/>
<path d="M529.504 407.896C528.951 407.9 528.399 407.948 527.853 408.038L493.898 371.892L497.36 360.352L480.627 352.852L470.24 378.239L519.093 417.099C518.83 419.214 519.217 421.359 520.204 423.248C521.19 425.138 522.728 426.682 524.613 427.676C526.498 428.67 528.641 429.067 530.758 428.813C532.874 428.559 534.862 427.667 536.459 426.256C538.056 424.845 539.186 422.98 539.697 420.911C540.209 418.842 540.078 416.667 539.323 414.674C538.568 412.681 537.225 410.965 535.471 409.754C533.716 408.543 531.635 407.895 529.504 407.896Z" fill="#FFB8B8"/>
<path d="M492.315 316.139L476.588 354.582L498.513 364.968L516.671 326.923C517.453 325.286 517.891 323.507 517.961 321.694C518.031 319.882 517.729 318.075 517.076 316.383C516.422 314.691 515.43 313.15 514.161 311.855C512.891 310.56 511.37 309.538 509.692 308.851C508.072 308.189 506.338 307.852 504.588 307.86C502.839 307.867 501.107 308.219 499.494 308.896C497.88 309.573 496.416 310.561 495.184 311.803C493.952 313.046 492.977 314.519 492.315 316.139Z" fill="#0157FF"/>
<path d="M498.28 289.539C502.129 287.319 502.539 281.964 502.016 277.552C501.493 273.14 500.62 268.221 503.213 264.614C506.308 260.308 512.527 260.222 517.828 260.082C523.128 259.941 529.584 258.389 530.957 253.268C531.865 249.883 529.923 246.252 527.137 244.127C524.35 242.003 520.864 241.064 517.476 240.171C509.897 238.175 502.071 236.161 494.31 237.259C486.623 238.346 479.673 242.415 474.964 248.587C470.255 254.76 468.165 262.538 469.147 270.239C470.403 280.09 472.225 284.391 471.029 288.735C468.802 296.825 459.198 302.022 459.007 310.411C458.858 316.973 464.654 322.036 470.309 325.367C474.794 328.01 479.635 330.253 484.805 330.872C489.974 331.49 495.54 330.306 499.391 326.802C504.357 322.283 505.586 314.733 504.162 308.171C502.737 301.609 499.084 295.782 495.47 290.122" fill="#2F2E41"/>
<path d="M963.004 296.896H608.004C605.618 296.899 603.331 297.848 601.644 299.536C599.957 301.223 599.008 303.51 599.004 305.896V533.896C599.008 536.281 599.957 538.568 601.644 540.255C603.331 541.943 605.618 542.892 608.004 542.896H963.004C965.39 542.892 967.677 541.943 969.364 540.255C971.051 538.568 972.001 536.281 972.004 533.896V305.896C972.001 303.51 971.051 301.223 969.364 299.536C967.677 297.848 965.39 296.899 963.004 296.896ZM970.004 533.896C970.002 535.751 969.264 537.531 967.952 538.843C966.639 540.155 964.86 540.893 963.004 540.896H608.004C606.148 540.893 604.369 540.155 603.057 538.843C601.744 537.531 601.006 535.751 601.004 533.896V305.896C601.006 304.04 601.744 302.26 603.057 300.948C604.369 299.636 606.148 298.898 608.004 298.896H963.004C964.86 298.898 966.639 299.636 967.952 300.948C969.264 302.26 970.002 304.04 970.004 305.896V533.896Z" fill="#3F3D56"/>
<path d="M683.779 410.392H627.779C625.526 410.389 623.365 409.493 621.772 407.899C620.178 406.306 619.282 404.145 619.279 401.892V345.892C619.282 343.638 620.178 341.478 621.772 339.884C623.365 338.291 625.526 337.394 627.779 337.392H683.779C686.033 337.394 688.193 338.291 689.787 339.884C691.38 341.478 692.277 343.638 692.279 345.892V401.892C692.277 404.145 691.38 406.306 689.787 407.899C688.193 409.493 686.033 410.389 683.779 410.392Z" fill="#0157FF"/>
<path d="M944.515 469.9H626.515C624.791 469.9 623.138 469.216 621.919 467.997C620.7 466.778 620.015 465.124 620.015 463.4C620.015 461.676 620.7 460.023 621.919 458.804C623.138 457.585 624.791 456.9 626.515 456.9H944.515C946.239 456.9 947.893 457.585 949.112 458.804C950.331 460.023 951.015 461.676 951.015 463.4C951.015 465.124 950.331 466.778 949.112 467.997C947.893 469.216 946.239 469.9 944.515 469.9Z" fill="#CCCCCC"/>
<path d="M944.729 438.4H626.729C625.005 438.4 623.352 437.716 622.133 436.497C620.914 435.278 620.229 433.624 620.229 431.9C620.229 430.176 620.914 428.523 622.133 427.304C623.352 426.085 625.005 425.4 626.729 425.4H944.729C946.453 425.4 948.106 426.085 949.325 427.304C950.544 428.523 951.229 430.176 951.229 431.9C951.229 433.624 950.544 435.278 949.325 436.497C948.106 437.716 946.453 438.4 944.729 438.4Z" fill="#CCCCCC"/>
<path d="M787.729 395.391H740.729C739.005 395.391 737.352 394.706 736.133 393.487C734.914 392.268 734.229 390.615 734.229 388.891C734.229 387.167 734.914 385.513 736.133 384.294C737.352 383.075 739.005 382.391 740.729 382.391H787.729C789.453 382.391 791.106 383.075 792.325 384.294C793.544 385.513 794.229 387.167 794.229 388.891C794.229 390.615 793.544 392.268 792.325 393.487C791.106 394.706 789.453 395.391 787.729 395.391Z" fill="#CCCCCC"/>
<path d="M944.729 363.4H740.729C739.005 363.4 737.352 362.716 736.133 361.497C734.914 360.278 734.229 358.624 734.229 356.9C734.229 355.176 734.914 353.523 736.133 352.304C737.352 351.085 739.005 350.4 740.729 350.4H944.729C946.453 350.4 948.106 351.085 949.325 352.304C950.544 353.523 951.229 355.176 951.229 356.9C951.229 358.624 950.544 360.278 949.325 361.497C948.106 362.716 946.453 363.4 944.729 363.4Z" fill="#CCCCCC"/>
<path d="M779.729 501.9H626.515C624.791 501.9 623.138 501.216 621.919 499.997C620.7 498.778 620.015 497.124 620.015 495.4C620.015 493.676 620.7 492.023 621.919 490.804C623.138 489.585 624.791 488.9 626.515 488.9H779.729C781.453 488.9 783.106 489.585 784.325 490.804C785.544 492.023 786.229 493.676 786.229 495.4C786.229 497.124 785.544 498.778 784.325 499.997C783.106 501.216 781.453 501.9 779.729 501.9Z" fill="#CCCCCC"/>
</g>
<defs>
<clipPath id="clip0_6_212">
<rect width="972.004" height="639.896" fill="white"/>
</clipPath>
</defs>
</svg>
