<svg width="777" height="539" viewBox="0 0 777 539" fill="none" xmlns="http://www.w3.org/2000/svg">
<g clip-path="url(#clip0_6_188)">
<path d="M292.462 105.107C286.552 83.5576 334.222 65.079 346.741 82.4324C348.481 79.9653 354.914 78.4667 357.866 79.2235C360.817 79.9803 363.3 81.8724 365.722 83.7039C369.052 86.2619 372.503 88.9107 374.546 92.5888C376.605 96.2518 376.922 101.247 374.152 104.425C371.958 106.953 365.479 108.588 362.18 109.254C359.879 109.723 357.942 110.101 356.277 110.374C354.793 108.209 354.036 105.53 354.309 102.912C352.069 104.395 350.555 106.938 350.313 109.632C350.267 110.192 368.915 178.805 368.915 178.805C366.993 179.94 364.617 181 361.877 181.968C357.23 174.96 353.416 166.696 350.903 158.053C350.328 163.396 350.419 169.193 351.115 175.081C351.478 178.214 352.023 181.363 352.72 184.511C330.56 189.294 297.23 187.72 282.73 167.377C282.727 167.293 282.725 167.209 282.722 167.124C282.619 163.318 277.425 162.372 276.035 165.917C275.683 166.815 275.36 167.592 275.071 168.209C270.848 153.103 276.312 135.621 292.462 105.107Z" fill="#2F2E41"/>
<path d="M593.672 275.988C588.43 282.207 579.138 282.998 572.92 277.755C572.317 277.247 571.756 276.691 571.243 276.094L501.263 298.258L490.373 280.409L573.682 254.692C580.218 249.87 589.426 251.259 594.248 257.795C598.283 263.264 598.045 270.785 593.672 275.988Z" fill="#FFB6B6"/>
<path d="M345.842 220.601C345.842 220.601 376.832 185.744 390.332 200.55C403.831 215.357 445.947 280.242 445.947 280.242L544.261 259.5L553.768 285.446L442.138 321.62C433.746 324.34 424.549 321.52 419.124 314.563L345.842 220.601Z" fill="#0157FF"/>
<path d="M413.15 538.35H259.44L259.3 537.15L259.21 536.35L257.89 525.15L256.02 509.2L255.3 503.07C255.25 502.76 255.2 502.46 255.16 502.15C254.53 498.16 254.17 494.15 254.04 490.15C253.85 484.65 254.1 479.16 254.69 473.74V473.71C255.01 470.78 255.42 467.88 255.93 465.01C256.57 461.32 257.34 457.69 258.23 454.14C259.25 450.02 260.41 446.01 261.68 442.14C263.14 437.61 264.74 433.27 266.39 429.17C266.57 428.73 266.75 428.29 266.92 427.86L266.93 427.85C275.63 406.64 285.51 392.15 285.51 392.15H397.49C397.49 392.15 402.67 414.88 405.24 433.65C405.65 436.62 405.99 439.48 406.24 442.14C406.69 447.05 406.82 451.27 406.43 454.14C406.19 455.92 405.75 457.18 405.07 457.76C398.91 463.02 405.96 474.18 405.96 474.18C405.96 474.18 411.24 482.25 406.64 486.79C405.73 487.69 405.21 488.85 404.96 490.15C404.56 492.3 404.91 494.8 405.46 497.01C406.01 499.23 406.77 501.16 407.19 502.15C407.38 502.59 407.5 502.84 407.5 502.84L408.28 509.01L409.04 514.95L410.33 525.15L410.72 526.95L412.73 536.35L412.9 537.15L413.15 538.35Z" fill="#2F2E41"/>
<path d="M335.508 172.912L288.511 177.098L279.848 204.054L270.408 205.42C254.277 207.756 244.677 224.674 250.945 239.72L259.251 259.659C259.251 259.659 247.05 297.317 262.034 313.14L268.411 382.828L254.027 428.769L422.16 434.196L393.521 376.571L392.672 340.791C392.672 340.791 410.972 276.119 394.005 255.549L387.385 197.039L352.896 191.866L335.508 172.912Z" fill="#0157FF"/>
<path d="M367.326 138.329C372.169 117.441 359.162 96.5814 338.273 91.7384C317.385 86.8954 296.526 99.9029 291.683 120.791C286.84 141.68 299.847 162.539 320.736 167.382C341.624 172.225 362.483 159.218 367.326 138.329Z" fill="#FFB6B6"/>
<path d="M271.271 108.134C265.361 86.585 313.032 68.1064 325.55 85.4597C327.291 82.9926 333.724 81.494 336.675 82.2509C339.627 83.0077 342.109 84.8997 344.531 86.7312C347.861 89.2892 351.312 91.9381 353.355 95.6162C355.414 99.2791 355.732 104.274 352.962 107.453C350.767 109.98 344.289 111.615 340.989 112.281C338.688 112.75 336.751 113.129 335.086 113.401C333.602 111.237 332.846 108.558 333.118 105.939C330.878 107.422 329.364 109.965 329.122 112.66C329.077 113.22 347.725 181.832 347.725 181.832C345.802 182.967 343.426 184.027 340.686 184.996C336.039 177.987 332.225 169.723 329.712 161.08C329.137 166.423 329.228 172.221 329.924 178.109C330.288 181.242 330.833 184.39 331.529 187.538C309.369 192.322 276.039 190.747 261.539 170.404C261.536 170.32 261.534 170.236 261.532 170.152C261.428 166.345 256.234 165.399 254.845 168.944C254.493 169.842 254.169 170.619 253.88 171.237C249.657 156.131 255.121 138.648 271.271 108.134Z" fill="#2F2E41"/>
<path d="M603.16 537.15H81.1599L0.159912 538.15L568.222 504.236C587.171 503.104 603.16 518.167 603.16 537.15Z" fill="#3F3D56"/>
<path d="M731 536.35V538.35H0V0H2V536.35H731Z" fill="#3F3D56"/>
<path d="M652.783 124.519H519.73C516.662 124.519 514.166 122.032 514.166 118.975C514.166 115.918 516.662 113.432 519.73 113.432H652.783C655.851 113.432 658.346 115.918 658.346 118.975C658.346 122.032 655.851 124.519 652.783 124.519Z" fill="#0157FF"/>
<path d="M586.206 142.4C585.709 141.174 583.992 141.174 583.494 142.4C580.025 150.952 575.087 160.529 569.715 167.848C568.855 169.02 570.04 170.586 571.407 170.091L582.922 165.925V237.209H586.777V165.925L598.297 170.092C599.664 170.586 600.849 169.02 599.989 167.849C594.617 160.529 589.678 150.952 586.206 142.4Z" fill="#3F3D56"/>
<path d="M772.627 165.268H690.596C688.705 165.268 687.166 163.734 687.166 161.849C687.166 159.964 688.705 158.432 690.596 158.432H772.627C774.518 158.432 776.057 159.964 776.057 161.849C776.057 163.734 774.518 165.268 772.627 165.268Z" fill="#F2F2F2"/>
<path d="M731.581 176.291C731.274 175.536 730.215 175.536 729.909 176.291C727.77 181.564 724.725 187.469 721.413 191.981C720.883 192.703 721.614 193.669 722.457 193.364L729.556 190.795V234.744H731.933V190.795L739.035 193.364C739.877 193.669 740.608 192.704 740.078 191.981C736.766 187.469 733.721 181.564 731.581 176.291Z" fill="#F2F2F2"/>
<path d="M731.625 277.15C741.469 277.15 749.45 269.17 749.45 259.326C749.45 249.481 741.469 241.501 731.625 241.501C721.781 241.501 713.8 249.481 713.8 259.326C713.8 269.17 721.781 277.15 731.625 277.15Z" fill="#F2F2F2"/>
<path d="M509.627 64.2675H427.597C425.705 64.2675 424.166 62.734 424.166 60.8492C424.166 58.9645 425.705 57.4316 427.597 57.4316H509.627C511.518 57.4316 513.057 58.9645 513.057 60.8492C513.057 62.734 511.518 64.2675 509.627 64.2675Z" fill="#F2F2F2"/>
<path d="M468.581 75.2913C468.274 74.5356 467.215 74.5357 466.909 75.2915C464.77 80.564 461.725 86.4685 458.413 90.9809C457.883 91.7034 458.614 92.6687 459.457 92.3639L466.556 89.7954V133.744H468.933V89.7954L476.035 92.3642C476.877 92.669 477.608 91.7037 477.078 90.9812C473.766 86.4688 470.721 80.564 468.581 75.2913Z" fill="#F2F2F2"/>
<path d="M468.625 176.15C478.469 176.15 486.45 168.17 486.45 158.326C486.45 148.481 478.469 140.501 468.625 140.501C458.781 140.501 450.8 148.481 450.8 158.326C450.8 168.17 458.781 176.15 468.625 176.15Z" fill="#F2F2F2"/>
<path d="M261.968 503.708C266.174 496.746 263.94 487.693 256.978 483.487C256.304 483.079 255.598 482.727 254.867 482.432L253.391 409.041L232.99 404.458L235.381 491.613C232.912 499.352 237.184 507.626 244.923 510.094C251.397 512.16 258.444 509.52 261.968 503.708Z" fill="#FFB6B6"/>
<path d="M276.16 214.15C276.16 214.15 251.16 208.15 243.16 225.15C235.16 242.15 234.479 316.127 234.479 316.127L230.16 466.15L261.871 464.753L287.16 280.15L276.16 214.15Z" fill="#0157FF"/>
<path d="M264.939 525.845C265.501 526.55 266.356 526.959 267.259 526.955H429.599C431.248 526.953 432.584 525.614 432.582 523.964C432.582 523.759 432.561 523.555 432.519 523.355L429.999 511.385C429.786 510.393 429.086 509.576 428.139 509.215C427.801 509.082 427.441 509.014 427.079 509.015H269.769C269.406 509.014 269.046 509.082 268.709 509.215C267.761 509.576 267.061 510.393 266.849 511.385L264.329 523.355C264.147 524.234 264.371 525.149 264.939 525.845Z" fill="#CCCCCC"/>
<path d="M202.789 257.885V445.145C202.793 450.113 206.82 454.141 211.789 454.145H489.289C494.258 454.141 498.285 450.113 498.289 445.145V257.885C498.277 252.921 494.253 248.901 489.289 248.895H211.789C206.825 248.901 202.8 252.921 202.789 257.885Z" fill="#E6E6E6"/>
<path d="M385.24 414.099C384.91 413.989 384.56 413.939 384.21 413.939H319.29C317.38 413.939 315.82 415.489 315.82 417.399V519.959H387.67V417.399C387.67 415.889 386.69 414.549 385.24 414.099ZM359.2 464.539C359.18 468.779 355.73 472.199 351.49 472.179C347.28 472.149 343.88 468.749 343.86 464.539V452.639C343.9 448.409 347.37 445.009 351.6 445.049C355.78 445.089 359.16 448.469 359.2 452.639V464.539Z" fill="#CCCCCC"/>
</g>
<defs>
<clipPath id="clip0_6_188">
<rect width="776.057" height="538.35" fill="white"/>
</clipPath>
</defs>
</svg>
