<svg height="56" viewBox="0 0 55 56" width="55" xmlns="http://www.w3.org/2000/svg"><g fill="none"><path d="m42.311 0h-39.821a2.489 2.489 0 0 0 -2.49 2.489v44.8a2.489 2.489 0 0 0 2.489 2.489h39.821a2.489 2.489 0 0 0 2.489-2.49v-44.8a2.489 2.489 0 0 0 -2.488-2.488z" fill="#b5ceff"/><path d="m51.022 35.156v20.844l-7.466-3.733-7.467 3.733v-20.844zm-17.422-18.978h-22.4a1.244 1.244 0 1 1 0-2.49h22.4a1.244 1.244 0 1 1 0 2.49zm-7.467 9.955h-14.933a1.244 1.244 0 1 1 0-2.489h14.933a1.244 1.244 0 1 1 0 2.49zm0 9.956h-14.933a1.244 1.244 0 1 1 0-2.489h14.933a1.244 1.244 0 1 1 0 2.489z" fill="#0157ff"/><path d="m43.556 17.422c-6.176 0-11.2 5.025-11.2 11.2 0 6.176 5.024 11.2 11.2 11.2s11.2-5.024 11.2-11.2c0-6.175-5.024-11.2-11.2-11.2z" fill="#80abff"/><circle cx="43.556" cy="28.622" fill="#0157ff" r="4.978"/></g></svg>