<svg height="55" viewBox="0 0 79 55" width="79" xmlns="http://www.w3.org/2000/svg"><g fill="none" fill-rule="evenodd"><ellipse cx="24.627" cy="22.415" fill="#0157ff" rx="16.418" ry="16.301"/><g fill="#b5ceff" fill-rule="nonzero"><path d="m18.474 16.55c0 1.837 1.363 2.216 3.12 2.94v-5.403c-1.63.244-3.12.824-3.12 2.464zm5.082 7.814v5.574c2.066-.315 3.243-1.194 3.243-2.639 0-1.725-1.497-2.297-3.243-2.935z"/><path d="m22.575 0c-12.449 0-22.575 10.055-22.575 22.415 0 12.359 10.126 22.414 22.575 22.414s22.575-10.055 22.575-22.414c0-12.36-10.126-22.415-22.575-22.415zm6.512 31.214c-1.244 1.095-3.184 1.664-5.53 1.92v3.899h-1.964v-3.688c-2.91-.047-5.53-.49-7.396-1.328v-3.687c2.076 1.007 5.008 1.722 7.396 1.747v-6.535l-1.711-.542c-1.925-.734-3.33-1.61-4.216-2.63s-1.329-2.28-1.329-3.783c0-1.608.631-2.93 1.892-3.968 1.262-1.036 3.206-1.676 5.364-1.898v-2.925h1.963v2.924c2.383.08 4.785.518 6.921 1.393l-1.285 3.197a19.936 19.936 0 0 0 -5.636-1.293v6.36l1.483.508c2.229.85 3.772 1.747 4.628 2.69.856.944 1.285 2.097 1.285 3.46.001 1.69-.621 3.083-1.865 4.179z"/></g><ellipse cx="56.437" cy="32.603" fill="#0157ff" rx="22.575" ry="22.415"/><g fill-rule="nonzero" transform="translate(33.862 10.188)"><path d="m22.575 0c-12.449 0-22.575 10.055-22.575 22.415 0 12.359 10.126 22.414 22.575 22.414s22.575-10.055 22.575-22.414c0-12.36-10.126-22.415-22.575-22.415z" fill="#0157ff"/><path d="m29.859 23.892v2.617h-5.202v2.669h5.202v2.652h-5.202v4.228h-4.165v-4.228h-5.209v-2.652h5.21v-2.67h-5.21v-2.616h4.118l-7.293-13.172h4.553l5.923 11.525 5.94-11.525h4.517l-7.385 13.172z" fill="#b5ceff"/></g></g></svg>