<?xml version="1.0" encoding="UTF-8"?>
<svg width="56px" height="56px" viewBox="0 0 56 56" version="1.1" xmlns="http://www.w3.org/2000/svg" xmlns:xlink="http://www.w3.org/1999/xlink">
    <!-- Generator: Sketch 64 (93537) - https://sketch.com -->
    <title>b-meeting</title>
    <desc>Created with Sketch.</desc>
    <g id="Page-1" stroke="none" stroke-width="1" fill="none" fill-rule="evenodd">
        <g id="QEX-B2C---1440-Copy" transform="translate(-960.000000, -2334.000000)" fill-rule="nonzero">
            <g id="Group-15" transform="translate(144.000000, 2042.000000)">
                <g id="b-meeting" transform="translate(816.000000, 292.000000)">
                    <path d="M54.7826087,0 L25.5652174,0 C24.892,0 24.3478261,0.545391304 24.3478261,1.2173913 L24.3478261,26.7826087 C24.3478261,27.2476522 24.6132174,27.6713043 25.0307826,27.8758261 C25.2,27.9586087 25.3838261,28 25.5652174,28 C25.8306087,28 26.0947826,27.9135652 26.3126957,27.7443478 L36.9393043,19.4782609 L54.7826087,19.4782609 C55.4558261,19.4782609 56,18.9328696 56,18.2608696 L56,1.2173913 C56,0.545391304 55.4558261,0 54.7826087,0 Z" id="Path" fill="#99BCFF"></path>
                    <path d="M22.0907826,47.2104348 C20.1453913,45.6667826 16.8450435,43.826087 12.173913,43.826087 C7.50278261,43.826087 4.20243478,45.6667826 2.25704348,47.2104348 C0.822956522,48.3486957 0,50.0761739 0,51.9485217 L0,54.7826087 C0,55.4558261 0.544173913,56 1.2173913,56 L23.1304348,56 C23.8036522,56 24.3478261,55.4558261 24.3478261,54.7826087 L24.3478261,51.9485217 C24.3478261,50.0761739 23.5248696,48.3486957 22.0907826,47.2104348 Z" id="Path" fill="#0157FF"></path>
                    <circle id="Oval" fill="#0157FF" cx="12.173913" cy="32.8695652" r="7.30434783"></circle>
                    <path d="M53.7429565,47.2104348 C51.7975652,45.6667826 48.4972174,43.826087 43.826087,43.826087 C39.1549565,43.826087 35.8546087,45.6667826 33.9092174,47.2104348 C32.4751304,48.3486957 31.6521739,50.0761739 31.6521739,51.9485217 L31.6521739,54.7826087 C31.6521739,55.4558261 32.1963478,56 32.8695652,56 L54.7826087,56 C55.4558261,56 56,55.4558261 56,54.7826087 L56,51.9485217 C56,50.0761739 55.1770435,48.3486957 53.7429565,47.2104348 Z" id="Path" fill="#0157FF"></path>
                    <circle id="Oval" fill="#0157FF" cx="43.826087" cy="32.8695652" r="7.30434783"></circle>
                </g>
            </g>
        </g>
    </g>
</svg>
