<svg width="405" height="277" viewBox="0 0 405 277" fill="none" xmlns="http://www.w3.org/2000/svg">
<path opacity="0.6" fill-rule="evenodd" clip-rule="evenodd" d="M45.7823 42.3403C54.0427 38.6421 60.5098 33.024 64.7885 25.9113C67.1086 22.5357 68.4242 18.3465 69.7191 14.2237L69.7592 14.0959C70.9983 9.87522 71.5635 5.14013 71.4077 0C67.0384 0.166072 62.7343 1.56351 58.7743 3.88852C54.7492 6.14872 51.7421 9.93598 49.0503 13.9217C44.0324 22.201 42.3948 32.9309 45.7823 42.3403ZM15.1815 20.8225C10.0767 32.4313 10.2905 45.1136 13.9497 54.3974C17.9531 63.9121 25.0686 69.9839 33.8761 71.8795C35.0065 66.8974 34.8507 61.8261 34.5862 56.9816C34.3145 52.1412 33.2638 47.317 31.5828 42.6873C28.7025 33.7032 23.2499 25.2335 15.1815 20.8225ZM1.09079 70.4115C0.688637 73.5871 0.536471 76.7303 0.616177 79.7723C0.666899 82.8102 1.00021 85.7509 1.7864 88.5498C3.23559 94.1395 5.39127 99.061 8.34037 102.966C14.5864 110.84 22.9482 114.449 31.8789 113.517C31.7283 108.551 30.3143 103.881 28.9731 99.4504L28.8356 98.9962C27.3646 94.4393 25.0568 90.1295 22.3722 86.2248C17.3435 78.5126 9.93811 72.1087 1.09079 70.4115ZM65.3994 134.307C61.3852 141.08 54.9 147.897 46.5599 151.587C43.3065 142.433 44.9984 132.529 49.6322 125.562C54.6247 118.389 62.2438 114.184 71.1636 113.054C71.7867 116.602 71.0404 120.219 70.1999 123.727C69.3304 127.231 67.6565 130.799 65.3994 134.307ZM0 122.511C0.916614 128.842 2.39117 134.808 5.19898 139.718C7.98143 144.643 11.3689 148.669 15.0861 151.533C23.0856 157.143 32.0344 157.981 40.3745 154.287C36.9943 144.748 31.596 136.906 24.4189 131.049C17.6439 125.221 8.91978 121.381 0 122.511ZM77.5608 162.998C75.1914 170.9 70.9054 179.285 63.7536 185.474C61.1088 181.573 59.2973 177.272 58.9205 172.65C58.4858 168.077 58.5909 163.8 60.2284 159.538C63.1957 151.13 69.4417 144.754 77.7311 140.902C79.1947 144.114 79.5715 147.687 79.4375 151.425C79.5172 155.03 78.8325 158.943 77.5608 162.998ZM20.9855 186.997C17.261 183.031 14.1489 177.859 11.7034 172.038C19.9891 168.186 29.3618 169.162 37.3831 172.637C41.256 174.488 45.5275 176.591 48.944 179.564C52.3061 182.594 55.7081 185.879 58.4906 189.982C51.462 196.082 42.4154 198.249 33.5391 195.211C29.2277 193.635 24.9273 190.84 20.9855 186.997ZM60.9604 102.161C55.381 107.423 47.4286 111.939 38.498 112.867C38.3603 107.982 38.6827 103.259 40.592 99.1313C42.4072 95.0038 44.8382 91.4717 47.9576 88.8227C54.5659 83.4962 62.9458 81.8395 71.7932 83.5367C71.5939 85.3352 71.1591 87.0445 70.5106 88.6931C69.9394 90.0721 69.2562 91.4113 68.5847 92.7273L68.5847 92.7274L68.5826 92.7314C68.4541 92.9834 68.326 93.2345 68.1992 93.4848C66.5 96.5875 63.9095 99.4958 60.9604 102.161ZM64.6685 70.0686C57.9768 73.3616 49.1983 75.2127 40.3909 73.3171C41.4778 68.582 43.0538 64.175 45.8326 60.7847C48.6078 57.3863 51.9083 54.798 55.4842 53.1981C63.1649 50.1723 71.6608 51.2457 79.7184 55.6527C76.8707 62.0769 71.755 66.7876 64.6685 70.0686ZM119.293 276.829C116.554 276.594 113.862 275.679 111.127 274.703C112.547 269.939 114.989 265.816 117.981 262.353C119.481 260.615 121.115 259.072 122.858 257.654C124.626 256.143 126.492 254.79 128.426 253.612C132.317 251.157 136.39 249.808 140.69 248.589C145.005 247.277 149.396 247.277 153.997 247.459C153.697 252.457 152.458 257.221 150.269 261.417C148.096 265.484 144.973 268.979 141.042 271.701C139.082 273.062 136.919 274.229 134.596 275.173C132.288 276.011 129.843 276.485 127.274 276.777C124.709 277.052 122.028 277.076 119.293 276.829ZM154.453 240.058C154.757 235.039 154.174 230.263 153.08 225.836C151.989 221.279 150.395 217.067 148.497 213.466C147.544 211.663 146.512 210.019 145.407 208.553C144.32 206.981 143.182 205.454 141.961 204.202C140.74 202.934 139.447 201.869 138.059 201.035C137.715 200.832 137.373 200.618 137.029 200.403L137.028 200.403L137.028 200.402L137.027 200.402L137.026 200.401C135.979 199.747 134.916 199.084 133.755 198.681C132.335 203.441 131.617 208.22 131.737 212.866C131.799 215.183 132.059 217.492 132.545 219.696C133.052 221.806 133.777 223.839 134.708 225.767C136.581 229.53 139.226 233.293 142.639 235.639C146.051 237.891 150.077 239.896 154.453 240.058ZM84.9636 258.794C79.9748 257.575 74.5186 255.696 69.9609 251.767C75.1055 243.524 83.2318 239.105 91.8582 236.865C100.387 235.006 109.368 235.366 117.958 238.898C114.933 248.348 108.361 255.639 99.4809 258.187C95.0573 259.507 89.9452 260.07 84.9636 258.794ZM120.226 231.928C123.247 222.49 122.827 212.866 121.106 204.562C120.207 200.443 118.747 197.061 117.142 193.666C115.56 190.403 113.263 188.258 110.832 185.985L110.646 185.812C105.52 194.027 103.085 203.566 104.824 212.084C106.295 220.866 111.98 228.545 120.226 231.928ZM48.4035 228.016C43.9364 225.29 39.4294 221.563 35.7629 216.642C42.6502 210.424 51.9251 208.338 60.5586 209.084C62.7252 209.274 64.8446 209.679 66.9387 210.238C69.1342 210.68 71.279 211.307 73.3477 212.134C77.4816 213.803 81.2567 216.318 85.1007 219.178C82.4414 223.22 79.1373 226.452 75.2679 228.684C71.3515 230.989 67.0329 232.074 62.4969 231.908C57.9827 231.734 52.9649 230.645 48.4035 228.016ZM89.0274 213.198C91.6866 209.155 93.5163 204.732 94.7155 200.349C95.8603 196.035 96.5306 191.531 96.7335 187.242C96.9472 182.936 96.411 179.185 95.5886 175.548C94.8604 171.805 93.3423 168.711 91.2519 165.948C84.1726 172.344 79.8504 180.396 79.1946 189.328C79.0279 191.547 79.0606 193.824 79.3504 196.064C79.7417 198.186 80.3612 200.305 81.2017 202.366C82.8611 206.506 85.3682 210.492 89.0274 213.198ZM383.501 186.994C387.226 183.029 390.338 177.856 392.784 172.035C384.498 168.183 375.125 169.16 367.104 172.635C363.231 174.486 358.959 176.588 355.543 179.561C352.181 182.591 348.779 185.876 345.996 189.979C353.025 196.079 362.072 198.246 370.948 195.208C375.259 193.633 379.56 190.838 383.501 186.994ZM340.734 185.472C333.582 179.282 329.296 170.898 326.926 162.995C325.655 158.941 324.97 155.028 325.05 151.423C324.916 147.684 325.292 144.111 326.756 140.899C335.045 144.751 341.291 151.127 344.259 159.536C345.896 163.797 346.001 168.074 345.567 172.648C345.19 177.269 343.378 181.571 340.734 185.472ZM399.292 139.545C402.1 134.636 403.574 128.669 404.491 122.338C395.571 121.208 386.847 125.048 380.072 130.877C372.895 136.734 367.497 144.576 364.116 154.115C372.457 157.809 381.405 156.97 389.405 151.36C393.122 148.497 396.509 144.47 399.292 139.545ZM357.928 151.426C349.588 147.736 343.103 140.919 339.089 134.146C336.831 130.639 335.158 127.07 334.288 123.566C333.448 120.059 332.701 116.441 333.324 112.893C342.244 114.023 349.863 118.228 354.856 125.401C359.49 132.368 361.181 142.272 357.928 151.426ZM403.877 79.768C403.956 76.7261 403.804 73.5829 403.402 70.4073C394.555 72.1044 387.149 78.5083 382.121 86.2206C379.436 90.1253 377.128 94.435 375.657 98.9919L375.52 99.4464L375.52 99.4467C374.179 103.877 372.765 108.547 372.614 113.513C381.545 114.445 389.907 110.836 396.153 102.961C399.102 99.0567 401.257 94.1353 402.707 88.5455C403.493 85.7466 403.826 82.8059 403.877 79.768ZM366.003 112.862C357.072 111.934 349.12 107.418 343.54 102.156C340.591 99.491 338.001 96.5828 336.302 93.48C336.174 93.2285 336.046 92.9762 335.916 92.723C335.245 91.4068 334.561 90.0675 333.99 88.6883C333.342 87.0397 332.907 85.3304 332.708 83.5319C341.555 81.8347 349.935 83.4914 356.543 88.8179C359.663 91.4669 362.094 94.999 363.909 99.1265C365.818 103.254 366.141 107.977 366.003 112.862ZM390.534 54.3949C394.193 45.1111 394.407 32.4288 389.302 20.82C381.234 25.231 375.781 33.7007 372.901 42.6848C371.22 47.3146 370.169 52.1388 369.898 56.9791C369.633 61.8236 369.477 66.8949 370.608 71.877C379.415 69.9814 386.531 63.9096 390.534 54.3949ZM364.099 73.3162C355.292 75.2119 346.513 73.3608 339.822 70.0677C332.735 66.7868 327.62 62.076 324.772 55.6518C332.829 51.2449 341.325 50.1715 349.006 53.1972C352.582 54.7972 355.882 57.3855 358.658 60.7839C361.437 64.1742 363.013 68.5812 364.099 73.3162ZM339.695 25.9113C343.974 33.024 350.441 38.6421 358.701 42.3403C362.088 32.9309 360.451 22.201 355.433 13.9217C352.741 9.93598 349.734 6.14872 345.709 3.88852C341.749 1.56351 337.445 0.166072 333.076 0C332.92 5.14013 333.485 9.87522 334.724 14.0959L334.764 14.2241C336.059 18.3468 337.375 22.5357 339.695 25.9113ZM293.371 274.696C290.635 275.672 287.944 276.587 285.205 276.822C282.469 277.069 279.788 277.045 277.223 276.77C274.654 276.478 272.209 276.004 269.901 275.166C267.579 274.222 265.416 273.055 263.456 271.694C259.525 268.972 256.402 265.477 254.228 261.41C252.04 257.214 250.801 252.45 250.5 247.452C255.101 247.27 259.492 247.27 263.807 248.582C268.108 249.801 272.18 251.15 276.071 253.605C278.006 254.783 279.872 256.136 281.64 257.647C283.382 259.065 285.016 260.608 286.516 262.346C289.509 265.809 291.951 269.932 293.371 274.696ZM251.412 225.831C250.318 230.258 249.735 235.034 250.039 240.052C254.416 239.89 258.441 237.885 261.854 235.633C265.267 233.288 267.911 229.525 269.785 225.762C270.716 223.834 271.44 221.801 271.947 219.69C272.433 217.487 272.694 215.178 272.755 212.861C272.875 208.215 272.158 203.436 270.737 198.676C269.576 199.078 268.513 199.742 267.466 200.396L267.465 200.397L267.465 200.397L267.464 200.397C267.12 200.612 266.777 200.826 266.433 201.029C265.046 201.864 263.752 202.929 262.531 204.197C261.31 205.449 260.173 206.976 259.086 208.547C257.981 210.014 256.948 211.658 255.995 213.461C254.097 217.062 252.503 221.274 251.412 225.831ZM334.517 251.765C329.959 255.694 324.503 257.573 319.514 258.792C314.533 260.068 309.421 259.505 304.997 258.185C296.117 255.637 289.545 248.346 286.52 238.896C295.11 235.364 304.091 235.004 312.62 236.863C321.246 239.103 329.372 243.522 334.517 251.765ZM283.383 204.559C281.662 212.863 281.241 222.487 284.263 231.924C292.509 228.542 298.193 220.862 299.664 212.081C301.403 203.563 298.969 194.024 293.842 185.809L293.657 185.982L293.656 185.983C291.225 188.255 288.929 190.4 287.346 193.663C285.741 197.057 284.281 200.44 283.383 204.559ZM368.732 216.635C365.066 221.557 360.559 225.283 356.092 228.009C351.53 230.638 346.512 231.728 341.998 231.902C337.462 232.068 333.144 230.982 329.227 228.678C325.358 226.446 322.054 223.213 319.394 219.171C323.238 216.311 327.013 213.796 331.147 212.127C333.216 211.301 335.361 210.673 337.556 210.231C339.65 209.672 341.77 209.267 343.936 209.077C352.57 208.332 361.845 210.418 368.732 216.635ZM309.766 200.348C310.965 204.731 312.795 209.154 315.454 213.196C319.113 210.491 321.62 206.505 323.28 202.365C324.12 200.304 324.74 198.185 325.131 196.063C325.421 193.823 325.453 191.546 325.287 189.327C324.631 180.395 320.309 172.343 313.23 165.947C311.139 168.709 309.621 171.804 308.893 175.547C308.07 179.184 307.534 182.935 307.748 187.241C307.951 191.53 308.621 196.034 309.766 200.348Z" fill="url(#paint0_linear_2189_43901)"/>
<defs>
<linearGradient id="paint0_linear_2189_43901" x1="202.728" y1="111.018" x2="201.919" y2="301.657" gradientUnits="userSpaceOnUse">
<stop stop-color="#1A1F23"/>
<stop offset="1" stop-color="#1A1F23" stop-opacity="0"/>
</linearGradient>
</defs>
</svg>
