<svg width="888" height="545" viewBox="0 0 888 545" fill="none" xmlns="http://www.w3.org/2000/svg">
<g clip-path="url(#clip0_3_125)">
<path d="M535.817 482.454L503.786 491.046L536.048 471.206C535.354 439.578 524.315 406.782 524.315 406.782C524.315 406.782 455.365 426.757 437.269 461.346C419.173 495.936 433.418 518.771 458.783 532.042C484.149 545.312 511.03 543.992 529.126 509.403C533.154 501.704 535.147 492.347 535.817 482.454Z" fill="#F2F2F2"/>
<path d="M497.662 489.215L496.77 490.92C486.301 510.685 474.869 524.399 462.614 531.856C462.437 531.968 462.257 532.067 462.08 532.179L461.58 531.347L461.109 530.542C474.535 522.591 485.804 507.318 494.941 490.081C495.241 489.528 495.545 488.967 495.832 488.397C499.635 481.066 503.061 473.43 506.105 465.863C506.346 465.28 506.583 464.683 506.82 464.087C510.787 454.079 514.095 444.263 516.746 435.62C516.936 435.01 517.118 434.395 517.295 433.789C521.723 419.141 524.179 408.138 524.705 405.694C524.774 405.397 524.807 405.231 524.816 405.193L525.738 405.384L525.75 405.38L526.68 405.576C526.671 405.615 526.563 406.171 526.331 407.189C525.485 411.004 523.085 421.305 519.127 434.479C518.946 435.072 518.764 435.687 518.574 436.297C516.43 443.313 513.868 451.068 510.875 459.048C510.126 461.054 509.366 463.022 508.593 464.95C508.365 465.551 508.128 466.147 507.888 466.731C504.597 474.911 501.189 482.406 497.662 489.215Z" fill="white"/>
<path d="M519.128 434.479C518.522 434.259 517.909 434.035 517.295 433.789C515.629 433.125 513.997 432.375 512.407 431.544C505.626 428.008 499.725 422.996 495.139 416.876C494.55 417.138 493.962 417.4 493.36 417.666C498.15 424.171 504.362 429.495 511.524 433.232C513.221 434.119 514.964 434.917 516.746 435.62C517.351 435.861 517.965 436.086 518.574 436.297C523.593 438.07 528.851 439.07 534.17 439.263C534.05 438.609 533.933 437.968 533.821 437.34C528.809 437.115 523.858 436.151 519.128 434.479Z" fill="white"/>
<path d="M508.594 464.951C507.993 464.68 507.402 464.392 506.82 464.087C506.638 464.003 506.453 463.906 506.275 463.813C498.933 459.972 492.629 454.412 487.899 447.608C483.17 440.804 480.156 432.958 479.115 424.737C478.517 425.059 477.918 425.38 477.324 425.714C478.506 434.099 481.668 442.081 486.549 449C491.43 455.919 497.89 461.576 505.392 465.501C505.628 465.625 505.865 465.748 506.106 465.864C506.701 466.164 507.292 466.452 507.888 466.731C517.141 470.984 527.424 472.482 537.506 471.046C537.496 470.407 537.487 469.767 537.469 469.124C527.643 470.572 517.607 469.122 508.594 464.951Z" fill="white"/>
<path d="M497.662 489.215C497.045 488.957 496.436 488.681 495.832 488.397C495.186 488.092 494.544 487.777 493.911 487.446C484.051 482.273 476.132 474.046 471.34 463.996C466.547 453.946 465.138 442.613 467.325 431.696C466.588 432.181 465.855 432.657 465.134 433.151C463.31 444.23 465.023 455.602 470.03 465.652C475.038 475.702 483.085 483.919 493.028 489.134C493.661 489.465 494.298 489.788 494.941 490.081C495.549 490.378 496.157 490.653 496.77 490.92C509.193 496.23 523.169 496.62 535.868 492.013C536.018 491.296 536.137 490.573 536.262 489.843C523.803 494.661 509.958 494.436 497.662 489.215Z" fill="white"/>
<path d="M115.183 485.454L147.214 494.046L114.952 474.206C115.646 442.578 126.685 409.782 126.685 409.782C126.685 409.782 195.635 429.757 213.731 464.346C231.827 498.936 217.582 521.771 192.217 535.042C166.851 548.312 139.97 546.992 121.874 512.403C117.846 504.704 115.853 495.347 115.183 485.454Z" fill="#F2F2F2"/>
<path d="M153.338 492.215L154.23 493.92C164.699 513.685 176.131 527.399 188.386 534.856C188.563 534.968 188.743 535.067 188.92 535.179L189.42 534.347L189.891 533.542C176.465 525.591 165.196 510.318 156.059 493.081C155.759 492.528 155.455 491.967 155.168 491.397C151.365 484.066 147.939 476.43 144.895 468.863C144.654 468.28 144.417 467.683 144.18 467.087C140.213 457.079 136.905 447.263 134.254 438.62C134.064 438.01 133.882 437.395 133.705 436.789C129.277 422.141 126.821 411.138 126.295 408.694C126.226 408.397 126.193 408.231 126.184 408.193L125.262 408.384L125.25 408.38L124.32 408.576C124.329 408.615 124.437 409.171 124.669 410.189C125.515 414.004 127.915 424.305 131.873 437.479C132.054 438.072 132.236 438.687 132.426 439.297C134.57 446.313 137.132 454.068 140.125 462.048C140.874 464.054 141.634 466.022 142.407 467.95C142.635 468.551 142.872 469.147 143.112 469.731C146.403 477.911 149.811 485.406 153.338 492.215Z" fill="white"/>
<path d="M117.179 440.34C117.066 440.968 116.95 441.609 116.83 442.263C122.149 442.07 127.407 441.07 132.426 439.297C133.035 439.086 133.649 438.861 134.254 438.62C136.036 437.917 137.779 437.119 139.476 436.232C146.638 432.495 152.85 427.171 157.639 420.666C157.038 420.4 156.45 420.138 155.861 419.876C151.275 425.996 145.374 431.008 138.593 434.544C137.003 435.375 135.371 436.125 133.705 436.789C133.091 437.035 132.478 437.259 131.872 437.479C127.142 439.151 122.191 440.115 117.179 440.34Z" fill="white"/>
<path d="M113.531 472.124C113.513 472.767 113.504 473.407 113.494 474.046C123.576 475.482 133.859 473.984 143.112 469.731C143.708 469.452 144.299 469.164 144.894 468.864C145.135 468.748 145.372 468.625 145.608 468.501C153.11 464.576 159.57 458.919 164.451 452C169.332 445.081 172.494 437.099 173.676 428.714C173.082 428.38 172.483 428.059 171.885 427.737C170.844 435.958 167.83 443.804 163.101 450.608C158.371 457.412 152.067 462.972 144.725 466.813C144.547 466.906 144.362 467.003 144.18 467.087C143.598 467.392 143.007 467.68 142.406 467.951C133.393 472.122 123.357 473.572 113.531 472.124Z" fill="white"/>
<path d="M114.738 492.843C114.863 493.573 114.982 494.295 115.132 495.013C127.831 499.62 141.807 499.23 154.23 493.92C154.843 493.653 155.451 493.378 156.059 493.081C156.702 492.788 157.339 492.465 157.972 492.134C167.915 486.919 175.962 478.702 180.97 468.652C185.977 458.602 187.69 447.23 185.866 436.151C185.145 435.657 184.412 435.181 183.675 434.696C185.861 445.613 184.453 456.946 179.66 466.996C174.868 477.046 166.949 485.273 157.089 490.446C156.456 490.777 155.814 491.092 155.168 491.397C154.564 491.681 153.955 491.957 153.338 492.215C141.043 497.436 127.197 497.661 114.738 492.843Z" fill="white"/>
<path d="M265.356 509.674L284.425 514.789L265.218 502.978C265.631 484.149 272.203 464.625 272.203 464.625C272.203 464.625 313.251 476.516 324.024 497.108C334.797 517.7 326.317 531.294 311.216 539.195C296.115 547.095 280.112 546.309 269.339 525.717C266.941 521.134 265.755 515.564 265.356 509.674Z" fill="#F2F2F2"/>
<path d="M288.07 513.699L288.601 514.714C294.834 526.481 301.64 534.645 308.935 539.085C309.041 539.151 309.148 539.21 309.254 539.277L309.551 538.782L309.832 538.302C301.838 533.569 295.13 524.477 289.691 514.215C289.512 513.886 289.331 513.552 289.16 513.212C286.896 508.848 284.857 504.302 283.044 499.797C282.901 499.45 282.76 499.095 282.619 498.74C280.257 492.782 278.288 486.938 276.709 481.793C276.596 481.43 276.488 481.064 276.382 480.703C273.747 471.982 272.284 465.432 271.971 463.977C271.93 463.8 271.91 463.701 271.905 463.679L271.356 463.793L271.349 463.79L270.795 463.907C270.801 463.93 270.865 464.261 271.003 464.867C271.507 467.138 272.936 473.271 275.292 481.114C275.4 481.467 275.508 481.833 275.621 482.196C276.897 486.373 278.423 490.989 280.205 495.74C280.65 496.935 281.103 498.106 281.563 499.254C281.699 499.612 281.84 499.967 281.983 500.314C283.942 505.184 285.971 509.645 288.07 513.699Z" fill="white"/>
<path d="M266.544 482.816C266.477 483.19 266.408 483.572 266.337 483.961C269.503 483.846 272.633 483.251 275.621 482.195C275.984 482.069 276.349 481.936 276.709 481.792C277.77 481.374 278.808 480.899 279.818 480.371C284.082 478.146 287.78 474.976 290.631 471.104C290.273 470.946 289.923 470.79 289.573 470.634C286.842 474.277 283.329 477.261 279.293 479.366C278.346 479.861 277.375 480.307 276.382 480.703C276.017 480.849 275.652 480.982 275.292 481.113C272.475 482.109 269.528 482.682 266.544 482.816Z" fill="white"/>
<path d="M264.373 501.738C264.362 502.121 264.356 502.502 264.35 502.882C270.353 503.737 276.474 502.846 281.983 500.314C282.338 500.147 282.69 499.976 283.044 499.797C283.187 499.728 283.328 499.655 283.469 499.581C287.935 497.244 291.78 493.877 294.686 489.758C297.592 485.639 299.475 480.887 300.178 475.895C299.824 475.696 299.468 475.505 299.112 475.313C298.492 480.207 296.698 484.879 293.883 488.929C291.067 492.98 287.314 496.29 282.943 498.576C282.837 498.631 282.727 498.689 282.619 498.74C282.272 498.921 281.92 499.092 281.563 499.253C276.197 501.737 270.222 502.6 264.373 501.738Z" fill="white"/>
<path d="M265.091 514.073C265.165 514.508 265.236 514.938 265.325 515.365C272.886 518.108 281.206 517.875 288.601 514.714C288.966 514.555 289.329 514.391 289.691 514.215C290.073 514.04 290.452 513.848 290.829 513.651C296.749 510.546 301.539 505.655 304.521 499.672C307.502 493.689 308.521 486.919 307.435 480.323C307.006 480.029 306.57 479.745 306.131 479.457C307.433 485.956 306.594 492.702 303.741 498.685C300.888 504.669 296.173 509.567 290.304 512.646C289.927 512.843 289.545 513.03 289.16 513.212C288.8 513.381 288.438 513.545 288.07 513.699C280.751 516.807 272.508 516.941 265.091 514.073Z" fill="white"/>
<path d="M646.236 336.557L646.155 336.55C630.988 334.045 614.139 334.046 594.646 336.553H594.639C594.152 336.558 593.67 336.468 593.219 336.286C592.767 336.105 592.357 335.836 592.01 335.494C591.663 335.153 591.388 334.747 591.199 334.299C591.01 333.851 590.912 333.37 590.909 332.883V315.23C590.911 314.256 591.298 313.322 591.987 312.634C592.675 311.945 593.609 311.558 594.583 311.557C611.748 309.318 629.132 309.32 646.298 311.56H646.304C647.267 311.575 648.186 311.968 648.861 312.655C649.535 313.342 649.912 314.267 649.909 315.23V332.883C649.908 333.857 649.521 334.791 648.832 335.479C648.144 336.168 647.21 336.555 646.236 336.557Z" fill="white"/>
<path d="M646.236 336.557L646.155 336.55C630.988 334.045 614.139 334.046 594.646 336.553H594.639C594.152 336.558 593.67 336.468 593.219 336.286C592.767 336.105 592.357 335.836 592.01 335.494C591.663 335.153 591.388 334.747 591.199 334.299C591.01 333.851 590.912 333.37 590.909 332.883V315.23C590.911 314.256 591.298 313.322 591.987 312.634C592.675 311.945 593.609 311.558 594.583 311.557C611.748 309.318 629.132 309.32 646.298 311.56H646.304C647.267 311.575 648.186 311.968 648.861 312.655C649.535 313.342 649.912 314.267 649.909 315.23V332.883C649.908 333.857 649.521 334.791 648.832 335.479C648.144 336.168 647.21 336.555 646.236 336.557ZM619.754 310.881C611.358 310.866 602.971 311.424 594.651 312.552C594.295 312.546 593.941 312.611 593.61 312.743C593.279 312.875 592.977 313.071 592.722 313.32C592.467 313.569 592.264 313.866 592.125 314.194C591.985 314.521 591.912 314.874 591.909 315.23V332.883C591.91 333.592 592.192 334.272 592.693 334.773C593.194 335.274 593.874 335.556 594.583 335.557C614.092 333.044 631.022 333.043 646.275 335.556C646.977 335.545 647.647 335.259 648.139 334.759C648.632 334.259 648.909 333.585 648.909 332.883V315.23C648.909 314.521 648.627 313.842 648.126 313.34C647.624 312.839 646.945 312.557 646.236 312.557C637.451 311.455 628.607 310.895 619.754 310.881Z" fill="#6C63FF"/>
<path d="M620.409 330.214C624.275 330.214 627.409 327.08 627.409 323.214C627.409 319.348 624.275 316.214 620.409 316.214C616.543 316.214 613.409 319.348 613.409 323.214C613.409 327.08 616.543 330.214 620.409 330.214Z" fill="#6C63FF"/>
<path d="M602.409 319.557H596.409C596.012 319.556 595.63 319.398 595.349 319.117C595.068 318.836 594.91 318.454 594.909 318.057V316.057C594.91 315.659 595.068 315.278 595.349 314.996C595.63 314.715 596.012 314.557 596.409 314.557H602.409C602.807 314.557 603.188 314.715 603.47 314.996C603.751 315.278 603.909 315.659 603.909 316.057V318.057C603.909 318.454 603.751 318.836 603.47 319.117C603.188 319.398 602.807 319.556 602.409 319.557Z" fill="#6C63FF"/>
<path d="M644.409 333.557H638.409C638.012 333.556 637.63 333.398 637.349 333.117C637.068 332.836 636.91 332.454 636.909 332.057V330.057C636.91 329.659 637.068 329.278 637.349 328.996C637.63 328.715 638.012 328.557 638.409 328.557H644.409C644.807 328.557 645.188 328.715 645.47 328.996C645.751 329.278 645.909 329.659 645.909 330.057V332.057C645.909 332.454 645.751 332.836 645.47 333.117C645.188 333.398 644.807 333.556 644.409 333.557Z" fill="#6C63FF"/>
<path d="M637.699 329.255L637.627 329.217C624.628 321.012 609.105 314.461 590.172 309.189L590.165 309.186C589.714 309.002 589.305 308.731 588.96 308.389C588.615 308.046 588.341 307.638 588.155 307.189C587.968 306.74 587.872 306.258 587.872 305.772C587.872 305.286 587.969 304.804 588.156 304.355L595.021 288.092C595.401 287.195 596.121 286.485 597.023 286.119C597.925 285.752 598.936 285.758 599.834 286.136C616.519 290.749 632.534 297.511 647.477 306.251L647.483 306.254C648.364 306.641 649.058 307.361 649.412 308.256C649.767 309.151 649.754 310.15 649.377 311.036L642.512 327.3C642.132 328.197 641.412 328.906 640.51 329.273C639.608 329.639 638.597 329.633 637.699 329.255Z" fill="white"/>
<path d="M637.699 329.255L637.627 329.217C624.628 321.012 609.105 314.461 590.172 309.189L590.165 309.186C589.714 309.002 589.305 308.731 588.96 308.389C588.615 308.046 588.341 307.638 588.155 307.189C587.968 306.74 587.872 306.258 587.872 305.772C587.872 305.286 587.969 304.804 588.156 304.355L595.021 288.092C595.401 287.195 596.121 286.485 597.023 286.119C597.925 285.752 598.936 285.758 599.834 286.136C616.519 290.749 632.534 297.511 647.477 306.251L647.483 306.254C648.364 306.641 649.058 307.361 649.412 308.256C649.767 309.151 649.754 310.15 649.377 311.036L642.512 327.3C642.132 328.197 641.412 328.906 640.51 329.273C639.608 329.639 638.597 329.633 637.699 329.255ZM623.286 295.302C615.557 292.024 607.613 289.276 599.51 287.079C599.184 286.935 598.832 286.858 598.476 286.85C598.12 286.843 597.766 286.906 597.434 287.037C597.103 287.167 596.8 287.362 596.544 287.609C596.288 287.857 596.084 288.153 595.943 288.48L589.077 304.744C588.802 305.397 588.798 306.133 589.065 306.79C589.332 307.446 589.848 307.97 590.501 308.247C609.452 313.519 625.049 320.102 638.124 328.349C638.775 328.612 639.503 328.608 640.152 328.339C640.8 328.07 641.317 327.557 641.591 326.911L648.456 310.647C648.731 309.994 648.735 309.258 648.468 308.602C648.202 307.945 647.685 307.421 647.032 307.145C639.368 302.713 631.437 298.758 623.286 295.302Z" fill="#6C63FF"/>
<path d="M619.094 313.919C622.96 313.919 626.094 310.785 626.094 306.919C626.094 303.053 622.96 299.919 619.094 299.919C615.228 299.919 612.094 303.053 612.094 306.919C612.094 310.785 615.228 313.919 619.094 313.919Z" fill="#6C63FF"/>
<path d="M603.933 296.55L598.406 294.217C598.039 294.062 597.75 293.768 597.6 293.399C597.45 293.031 597.453 292.618 597.607 292.251L598.385 290.409C598.54 290.043 598.834 289.753 599.202 289.603C599.571 289.453 599.984 289.456 600.35 289.61L605.878 291.944C606.244 292.099 606.534 292.393 606.684 292.761C606.833 293.129 606.831 293.542 606.676 293.909L605.899 295.751C605.744 296.118 605.45 296.407 605.081 296.557C604.713 296.707 604.3 296.704 603.933 296.55Z" fill="#6C63FF"/>
<path d="M637.183 325.781L631.655 323.448C631.289 323.293 630.999 322.999 630.85 322.631C630.7 322.262 630.702 321.849 630.857 321.483L631.634 319.64C631.789 319.274 632.083 318.984 632.452 318.835C632.82 318.685 633.233 318.687 633.6 318.842L639.127 321.175C639.494 321.33 639.783 321.624 639.933 321.992C640.083 322.361 640.08 322.774 639.926 323.14L639.148 324.983C638.993 325.349 638.699 325.639 638.331 325.789C637.962 325.938 637.549 325.936 637.183 325.781Z" fill="#6C63FF"/>
<path d="M651.475 319.591C652.734 318.833 653.812 317.808 654.633 316.588C655.453 315.368 655.996 313.983 656.224 312.531C656.451 311.079 656.358 309.594 655.949 308.182C655.541 306.77 654.828 305.464 653.86 304.357L671.569 273.319L653.038 274.516L639.062 303.807C637.311 305.556 636.261 307.886 636.113 310.357C635.965 312.827 636.728 315.266 638.258 317.212C639.788 319.158 641.978 320.474 644.414 320.913C646.85 321.351 649.362 320.881 651.475 319.591Z" fill="#FFB6B6"/>
<path d="M787.796 531.184H775.536L769.704 483.896L787.798 483.897L787.796 531.184Z" fill="#FFB6B6"/>
<path d="M790.922 543.068L751.392 543.067V542.567C751.392 538.486 753.013 534.573 755.899 531.687C758.784 528.802 762.698 527.181 766.778 527.181H766.779L790.923 527.182L790.922 543.068Z" fill="#2F2E41"/>
<path d="M703.796 531.184H691.536L685.704 483.896L703.798 483.897L703.796 531.184Z" fill="#FFB6B6"/>
<path d="M706.922 543.068L667.392 543.067V542.567C667.392 538.486 669.013 534.573 671.899 531.687C674.784 528.802 678.698 527.181 682.778 527.181H682.779L706.923 527.182L706.922 543.068Z" fill="#2F2E41"/>
<path d="M672.271 274.653C672.271 274.653 668.899 322.674 675.54 346.859C682.182 371.044 683.368 517.3 683.368 517.3H705.629L724.924 318.215L769.406 518.002L790.611 516.544L778.982 281.121L672.271 274.653Z" fill="#2F2E41"/>
<path d="M769.783 112.775L752.764 100.356L724.247 106.565L716.527 124.908L703.226 131.503C698.852 133.671 695.071 136.869 692.206 140.822C689.341 144.775 687.479 149.364 686.779 154.195L667.776 285.42L778.982 281.121L792.445 126.578C792.585 124.964 792.401 123.338 791.902 121.796C791.403 120.254 790.6 118.828 789.54 117.603C788.48 116.377 787.185 115.376 785.732 114.66C784.278 113.943 782.696 113.526 781.078 113.432L769.783 112.775Z" fill="#E4E4E4"/>
<path d="M696.189 141.753L685.918 155.599L641.182 292.044L662.152 300.44L695.729 236.859L696.189 141.753Z" fill="#E4E4E4"/>
<path d="M732.961 92.3323C751.759 92.3323 766.998 77.0933 766.998 58.295C766.998 39.4968 751.759 24.2578 732.961 24.2578C714.162 24.2578 698.923 39.4968 698.923 58.295C698.923 77.0933 714.162 92.3323 732.961 92.3323Z" fill="#2F2E41"/>
<path d="M733.421 93.8722C747.138 93.8722 758.259 82.7519 758.259 69.0343C758.259 55.3166 747.138 44.1963 733.421 44.1963C719.703 44.1963 708.583 55.3166 708.583 69.0343C708.583 82.7519 719.703 93.8722 733.421 93.8722Z" fill="#FFB9B9"/>
<path d="M752.279 65.8145C736.464 60.1099 731.112 56.6054 713.642 65.8145L707.203 40.0566H758.719L752.279 65.8145Z" fill="#2F2E41"/>
<path d="M730.201 43.7365C740.87 43.7365 749.519 35.0873 749.519 24.418C749.519 13.7488 740.87 5.09961 730.201 5.09961C719.532 5.09961 710.882 13.7488 710.882 24.418C710.882 35.0873 719.532 43.7365 730.201 43.7365Z" fill="#2F2E41"/>
<path d="M707.203 19.8184C707.205 14.8572 709.118 10.0874 712.544 6.49886C715.969 2.91035 720.645 0.778742 725.601 0.546432C725.294 0.531932 724.992 0.5 724.681 0.5C719.558 0.5 714.644 2.53533 711.021 6.15823C707.398 9.78114 705.363 14.6948 705.363 19.8184C705.363 24.942 707.398 29.8557 711.021 33.4786C714.644 37.1015 719.558 39.1368 724.681 39.1368C724.992 39.1368 725.294 39.1049 725.601 39.0904C720.645 38.8581 715.969 36.7265 712.544 33.138C709.118 29.5495 707.205 24.7797 707.203 19.8184Z" fill="#2F2E41"/>
<path opacity="0.1" d="M778.087 149.611L771.157 218.696L746.683 266.931L778.087 149.611Z" fill="black"/>
<path d="M45.5 362.237H39.5V367.237H45.5V362.237Z" fill="#F0F0F0"/>
<path d="M613.029 367.237H601.206V362.237H613.029V367.237ZM589.383 367.237H577.559V362.237H589.383V367.237ZM565.735 367.237H553.912V362.237H565.735V367.237ZM542.089 367.237H530.265V362.237H542.089V367.237ZM518.441 367.237H506.618V362.237H518.441V367.237ZM494.794 367.237H482.971V362.237H494.794L494.794 367.237ZM471.147 367.237H459.324V362.237H471.147V367.237ZM447.5 367.237H435.677V362.237H447.5V367.237ZM423.853 367.237H412.03V362.237H423.853V367.237ZM400.206 367.237H388.382V362.237H400.206L400.206 367.237ZM376.559 367.237H364.735V362.237H376.559L376.559 367.237ZM352.912 367.237H341.088V362.237H352.912L352.912 367.237ZM329.265 367.237H317.441V362.237H329.265L329.265 367.237ZM305.618 367.237H293.794V362.237H305.618L305.618 367.237ZM281.971 367.237H270.147V362.237H281.971L281.971 367.237ZM258.324 367.237H246.5V362.237H258.324L258.324 367.237ZM234.677 367.237H222.853V362.237H234.677L234.677 367.237ZM211.03 367.237H199.206V362.237H211.03L211.03 367.237ZM187.382 367.237H175.559V362.237H187.382L187.382 367.237ZM163.735 367.237H151.912V362.237H163.735L163.735 367.237ZM140.088 367.237H128.265V362.237H140.088L140.088 367.237ZM116.441 367.237H104.618V362.237H116.441L116.441 367.237ZM92.7941 367.237H80.9707V362.237H92.7944L92.7941 367.237ZM69.1471 367.237H57.3237V362.237H69.1474L69.1471 367.237Z" fill="#F0F0F0"/>
<path d="M45.5 235.237H39.5V240.237H45.5V235.237Z" fill="#F0F0F0"/>
<path d="M613.029 240.237H601.206V235.237H613.029V240.237ZM589.383 240.237H577.559V235.237H589.383V240.237ZM565.735 240.237H553.912V235.237H565.735V240.237ZM542.089 240.237H530.265V235.237H542.089V240.237ZM518.441 240.237H506.618V235.237H518.441V240.237ZM494.794 240.237H482.971V235.237H494.794L494.794 240.237ZM471.147 240.237H459.324V235.237H471.147V240.237ZM447.5 240.237H435.677V235.237H447.5V240.237ZM423.853 240.237H412.03V235.237H423.853V240.237ZM400.206 240.237H388.382V235.237H400.206L400.206 240.237ZM376.559 240.237H364.735V235.237H376.559L376.559 240.237ZM352.912 240.237H341.088V235.237H352.912L352.912 240.237ZM329.265 240.237H317.441V235.237H329.265L329.265 240.237ZM305.618 240.237H293.794V235.237H305.618L305.618 240.237ZM281.971 240.237H270.147V235.237H281.971L281.971 240.237ZM258.324 240.237H246.5V235.237H258.324L258.324 240.237ZM234.677 240.237H222.853V235.237H234.677L234.677 240.237ZM211.03 240.237H199.206V235.237H211.03L211.03 240.237ZM187.382 240.237H175.559V235.237H187.382L187.382 240.237ZM163.735 240.237H151.912V235.237H163.735L163.735 240.237ZM140.088 240.237H128.265V235.237H140.088L140.088 240.237ZM116.441 240.237H104.618V235.237H116.441L116.441 240.237ZM92.7941 240.237H80.9707V235.237H92.7944L92.7941 240.237ZM69.1471 240.237H57.3237V235.237H69.1474L69.1471 240.237Z" fill="#F0F0F0"/>
<path d="M45.5 108.237H39.5V113.237H45.5V108.237Z" fill="#F0F0F0"/>
<path d="M613.029 113.237H601.206V108.237H613.029V113.237ZM589.383 113.237H577.559V108.237H589.383V113.237ZM565.735 113.237H553.912V108.237H565.735V113.237ZM542.089 113.237H530.265V108.237H542.089V113.237ZM518.441 113.237H506.618V108.237H518.441V113.237ZM494.794 113.237H482.971V108.237H494.794L494.794 113.237ZM471.147 113.237H459.324V108.237H471.147V113.237ZM447.5 113.237H435.677V108.237H447.5V113.237ZM423.853 113.237H412.03V108.237H423.853V113.237ZM400.206 113.237H388.382V108.237H400.206L400.206 113.237ZM376.559 113.237H364.735V108.237H376.559L376.559 113.237ZM352.912 113.237H341.088V108.237H352.912L352.912 113.237ZM329.265 113.237H317.441V108.237H329.265L329.265 113.237ZM305.618 113.237H293.794V108.237H305.618L305.618 113.237ZM281.971 113.237H270.147V108.237H281.971L281.971 113.237ZM258.324 113.237H246.5V108.237H258.324L258.324 113.237ZM234.677 113.237H222.853V108.237H234.677L234.677 113.237ZM211.03 113.237H199.206V108.237H211.03L211.03 113.237ZM187.382 113.237H175.559V108.237H187.382L187.382 113.237ZM163.735 113.237H151.912V108.237H163.735L163.735 113.237ZM140.088 113.237H128.265V108.237H140.088L140.088 113.237ZM116.441 113.237H104.618V108.237H116.441L116.441 113.237ZM92.7941 113.237H80.9707V108.237H92.7944L92.7941 113.237ZM69.1471 113.237H57.3237V108.237H69.1474L69.1471 113.237Z" fill="#F0F0F0"/>
<path d="M235 363.737H186V543.737H235V363.737Z" fill="#0157FF"/>
<path d="M244 363.737H195V543.737H244V363.737Z" fill="#6C63FF"/>
<path d="M351 236.737H302V543.737H351V236.737Z" fill="#3F3D56"/>
<path d="M360 236.737H311V543.737H360V236.737Z" fill="#0157FF"/>
<path d="M467 109.737H418V543.737H467V109.737Z" fill="#3F3D56"/>
<path d="M476 109.737H427V543.737H476V109.737Z" fill="#0157FF"/>
<path d="M40 122.737C46.6274 122.737 52 117.364 52 110.737C52 104.109 46.6274 98.7368 40 98.7368C33.3726 98.7368 28 104.109 28 110.737C28 117.364 33.3726 122.737 40 122.737Z" fill="#F0F0F0"/>
<path d="M40 249.737C46.6274 249.737 52 244.364 52 237.737C52 231.109 46.6274 225.737 40 225.737C33.3726 225.737 28 231.109 28 237.737C28 244.364 33.3726 249.737 40 249.737Z" fill="#F0F0F0"/>
<path d="M40 376.737C46.6274 376.737 52 371.364 52 364.737C52 358.109 46.6274 352.737 40 352.737C33.3726 352.737 28 358.109 28 364.737C28 371.364 33.3726 376.737 40 376.737Z" fill="#F0F0F0"/>
<path d="M888 542.616H0V544.857H888V542.616Z" fill="#3F3D56"/>
<path d="M749.236 314.557L749.155 314.55C733.988 312.045 717.139 312.046 697.646 314.553H697.639C697.152 314.558 696.67 314.468 696.219 314.286C695.767 314.105 695.357 313.836 695.01 313.494C694.663 313.153 694.388 312.747 694.199 312.299C694.01 311.851 693.912 311.37 693.909 310.883V293.23C693.911 292.256 694.298 291.322 694.987 290.634C695.675 289.945 696.609 289.558 697.583 289.557C714.748 287.318 732.132 287.32 749.298 289.56H749.304C750.267 289.575 751.186 289.968 751.861 290.655C752.535 291.342 752.912 292.267 752.909 293.23V310.883C752.908 311.857 752.521 312.791 751.832 313.479C751.144 314.168 750.21 314.555 749.236 314.557Z" fill="white"/>
<path d="M749.236 314.557L749.155 314.55C733.988 312.045 717.139 312.046 697.646 314.553H697.639C697.152 314.558 696.67 314.468 696.219 314.286C695.767 314.105 695.357 313.836 695.01 313.494C694.663 313.153 694.388 312.747 694.199 312.299C694.01 311.851 693.912 311.37 693.909 310.883V293.23C693.911 292.256 694.298 291.322 694.987 290.634C695.675 289.945 696.609 289.558 697.583 289.557C714.748 287.318 732.132 287.32 749.298 289.56H749.304C750.267 289.575 751.186 289.968 751.861 290.655C752.535 291.342 752.912 292.267 752.909 293.23V310.883C752.908 311.857 752.521 312.791 751.832 313.479C751.144 314.168 750.21 314.555 749.236 314.557ZM722.754 288.881C714.358 288.866 705.971 289.424 697.651 290.552C697.295 290.546 696.941 290.611 696.61 290.743C696.279 290.875 695.977 291.071 695.722 291.32C695.467 291.569 695.264 291.866 695.125 292.194C694.985 292.521 694.912 292.874 694.909 293.23V310.883C694.91 311.592 695.192 312.272 695.693 312.773C696.194 313.274 696.874 313.556 697.583 313.557C717.092 311.044 734.022 311.043 749.275 313.556C749.977 313.545 750.647 313.259 751.139 312.759C751.632 312.259 751.909 311.585 751.909 310.883V293.23C751.909 292.521 751.627 291.842 751.126 291.34C750.624 290.839 749.945 290.557 749.236 290.557C740.451 289.455 731.607 288.895 722.754 288.881Z" fill="#6C63FF"/>
<path d="M723.409 308.214C727.275 308.214 730.409 305.08 730.409 301.214C730.409 297.348 727.275 294.214 723.409 294.214C719.543 294.214 716.409 297.348 716.409 301.214C716.409 305.08 719.543 308.214 723.409 308.214Z" fill="#6C63FF"/>
<path d="M705.409 297.557H699.409C699.012 297.556 698.63 297.398 698.349 297.117C698.068 296.836 697.91 296.454 697.909 296.057V294.057C697.91 293.659 698.068 293.278 698.349 292.996C698.63 292.715 699.012 292.557 699.409 292.557H705.409C705.807 292.557 706.188 292.715 706.47 292.996C706.751 293.278 706.909 293.659 706.909 294.057V296.057C706.909 296.454 706.751 296.836 706.47 297.117C706.188 297.398 705.807 297.556 705.409 297.557Z" fill="#6C63FF"/>
<path d="M747.409 311.557H741.409C741.012 311.556 740.63 311.398 740.349 311.117C740.068 310.836 739.91 310.454 739.909 310.057V308.057C739.91 307.659 740.068 307.278 740.349 306.996C740.63 306.715 741.012 306.557 741.409 306.557H747.409C747.807 306.557 748.188 306.715 748.47 306.996C748.751 307.278 748.909 307.659 748.909 308.057V310.057C748.909 310.454 748.751 310.836 748.47 311.117C748.188 311.398 747.807 311.556 747.409 311.557Z" fill="#6C63FF"/>
<path d="M737.994 291.416C737.891 289.95 738.111 288.479 738.638 287.106C739.165 285.734 739.987 284.494 741.045 283.474C742.104 282.453 743.373 281.677 744.763 281.201C746.154 280.724 747.632 280.558 749.094 280.714L764.332 248.391L773.995 264.248L758.044 292.512C757.618 294.95 756.313 297.147 754.376 298.688C752.439 300.228 750.003 301.004 747.532 300.869C745.061 300.734 742.725 299.697 740.967 297.955C739.209 296.213 738.151 293.886 737.994 291.416Z" fill="#FFB6B6"/>
<path d="M779.422 122.339L785.697 114.155C785.697 114.155 800.988 111.041 803.585 132.042L801.949 225.408L768.444 278.144L746.683 272.588L775.134 209.941L779.422 122.339Z" fill="#E4E4E4"/>
</g>
<defs>
<clipPath id="clip0_3_125">
<rect width="888" height="544.357" fill="white" transform="translate(0 0.5)"/>
</clipPath>
</defs>
</svg>
