<svg width="852" height="528" viewBox="0 0 852 528" fill="none" xmlns="http://www.w3.org/2000/svg">
<g clip-path="url(#clip0_3_5)">
<path d="M697.478 504.637L688.63 502.562L693.981 461.783L707.038 464.843L697.478 504.637Z" fill="#FFB6B6"/>
<path d="M662.546 515.154C662.16 516.639 662.902 518.117 664.202 518.455L681.657 522.985C681.657 522.985 685.167 516.526 692.942 515.372L690.862 525.373L699.866 527.71L702.897 511.546C702.897 511.546 707.51 503.675 703.635 498.034C699.76 492.393 703.654 494.049 703.654 494.049L704.237 483.709L690.215 481.778L686.111 497.181L675.534 510.783L664.607 513.053C663.634 513.256 662.824 514.081 662.546 515.154Z" fill="#2F2E41"/>
<path d="M782.297 495.015L774.227 499.194L751.766 464.74L763.674 458.572L782.297 495.015Z" fill="#FFB6B6"/>
<path d="M762.606 525.725C763.279 527.104 764.804 527.744 766.011 527.154L782.216 519.241C782.216 519.241 780.68 512.052 785.834 506.119L790.761 515.068L799.12 510.986L790.907 496.738C790.907 496.738 789.292 487.758 782.679 485.995C776.066 484.231 780.101 482.955 780.101 482.955L773.819 474.723L761.912 482.377L768.814 496.746L769.627 513.956L762.805 522.789C762.198 523.575 762.12 524.729 762.606 525.725Z" fill="#2F2E41"/>
<path d="M309.047 343.553H543.57C546.522 343.553 548.916 341.159 548.916 338.207V6.34619C548.916 3.39357 546.522 1 543.57 1H309.047C306.094 1 303.701 3.39357 303.701 6.34619V338.207C303.701 341.159 306.094 343.553 309.047 343.553Z" fill="white"/>
<path d="M549.916 344.553H302.701V0H549.916V344.553ZM304.701 342.553H547.916V2H304.701V342.553Z" fill="#E6E6E6"/>
<path d="M494.359 55.196C495.311 55.196 496.082 55.9674 496.082 56.919V60.365C496.082 61.3166 495.311 62.088 494.359 62.088H358.259C357.307 62.088 356.536 61.3166 356.536 60.365V56.919C356.536 55.9675 357.307 55.196 358.259 55.196H494.359Z" fill="#E6E6E6"/>
<path d="M494.359 71.562C495.311 71.562 496.082 72.3334 496.082 73.285V76.731C496.082 77.6826 495.311 78.454 494.359 78.454H358.259C357.307 78.454 356.536 77.6826 356.536 76.731V73.285C356.536 72.3334 357.307 71.562 358.259 71.562H494.359Z" fill="#E6E6E6"/>
<path d="M494.359 87.929C495.311 87.929 496.082 88.7003 496.082 89.6519V93.098C496.082 94.0496 495.311 94.8209 494.359 94.8209H358.259C357.307 94.8209 356.536 94.0495 356.536 93.098V89.6529C356.536 88.7014 357.307 87.93 358.259 87.93L494.359 87.929Z" fill="#0157FF"/>
<path d="M744.866 130.867H790.075C790.009 128.743 790.46 126.635 791.39 124.724C791.416 126.844 791.883 128.936 792.759 130.867H794.812C797.953 130.864 800.499 128.318 800.502 125.177V95.7996C800.5 81.4157 788.202 59.853 774.839 68.876C774.408 68.8535 767.633 65.853 767.202 65.853C755.446 65.8626 751.403 76.4718 747.853 87.6793C743.807 85.8151 741.02 93.5967 739.003 107.293C738.415 111.29 737.892 115.791 737.423 120.702C736.127 124.823 738.417 129.215 742.538 130.511C743.292 130.748 744.078 130.869 744.869 130.871L744.866 130.867Z" fill="#2F2E41"/>
<path d="M656.152 298.821C653.911 304.134 654.835 309.597 658.216 311.024C661.597 312.45 666.155 309.299 668.396 303.984C669.32 301.873 669.726 299.571 669.579 297.272L678.792 274.639L668.08 270.542L660.131 293.289C658.381 294.789 657.016 296.685 656.149 298.82L656.152 298.821Z" fill="#FFB6B6"/>
<path d="M755.208 120.923L776.817 125.444L773.502 135.386L780.131 211.436L769.084 235.923L701.69 230.398L718.262 197.252C718.262 197.252 711.633 169.632 720.472 164.106C729.311 158.58 743.674 130.96 743.674 130.96L755.208 120.923Z" fill="#0157FF"/>
<path d="M775.351 129.841L794.495 137.592L787.865 234.815L802.228 318.78L755.826 326.514C755.826 326.514 761.35 140.907 764.664 137.592C767.978 134.277 775.351 129.836 775.351 129.836V129.841Z" fill="#2F2E41"/>
<path d="M737.859 141.966C737.859 141.966 725.403 134.086 718.673 139.921C711.943 145.756 660.131 286.811 660.131 286.811L674.106 292.883L706.157 225.681L737.859 141.966Z" fill="#2F2E41"/>
<path d="M702.176 379.627L689.54 476.772L707.217 477.877C707.217 477.877 716.408 452.797 726.893 423.255C729.125 416.99 731.411 410.527 733.677 404.054C736.129 397.027 738.572 390 740.891 383.217C746.624 366.491 751.652 351.266 754.524 341.323C755.02 339.578 755.462 337.999 755.827 336.606C763.556 306.908 767.979 229.3 767.979 229.3L703.9 223.776L703.216 224.627L689.54 241.718L690.18 245.331L707.217 340.885L702.179 379.631L702.176 379.627Z" fill="#2F2E41"/>
<path d="M707.214 340.884L702.176 379.63L724.836 419.523L726.889 423.257L758.089 479.955L773.501 471.216C773.501 471.216 753.449 425.134 740.887 383.218C739.495 378.61 738.202 374.047 737.042 369.606C733.628 356.602 739.219 332.872 737.032 326.33C729.641 304.256 705.555 260.097 694.375 240.092L690.176 245.329L707.214 340.884Z" fill="#2F2E41"/>
<path d="M743.952 130.128L721.581 138.702L663.026 309.947L698.38 315.471L714.952 216.039L743.952 130.128Z" fill="#2F2E41"/>
<path d="M799.898 314.973C800.467 320.711 803.889 325.069 807.541 324.707C811.193 324.344 813.691 319.398 813.121 313.658C812.925 311.362 812.181 309.146 810.953 307.196L808.235 282.912L796.867 284.431L800.753 308.209C799.932 310.363 799.639 312.682 799.898 314.973Z" fill="#FFB6B6"/>
<path d="M786.759 137.597C786.759 137.597 801.121 134.282 805.54 142.016C809.96 149.751 812.17 300.004 812.17 300.004L796.972 301.109L788.969 227.089L786.76 137.6L786.759 137.597Z" fill="#2F2E41"/>
<path d="M768.43 118.243C781.113 118.243 791.395 107.961 791.395 95.2774C791.395 82.5938 781.113 72.3118 768.43 72.3118C755.746 72.3118 745.464 82.5938 745.464 95.2774C745.464 107.961 755.746 118.243 768.43 118.243Z" fill="#FFB6B6"/>
<path d="M777.648 130.866H788.99C789.566 130.866 790.056 130.422 790.083 129.846L790.086 129.783C790.148 128.583 791.831 128.381 792.222 129.517C792.38 129.974 792.559 130.424 792.759 130.866H793.875V95.4601C793.875 89.3873 788.952 84.4644 782.879 84.4644C777.694 84.4644 773.214 88.0863 772.127 93.156C772.127 93.156 764.42 102.61 768.962 107.925C773.505 113.24 766.896 117.566 766.896 117.566C765.429 124.411 770.648 130.866 777.648 130.866Z" fill="#2F2E41"/>
<path d="M401.61 172.108C404.155 170.467 404.692 166.954 402.911 164.504L394.572 153.029C392.624 150.346 388.87 149.75 386.187 151.697C385.949 151.87 385.724 152.06 385.514 152.265C371.393 159.815 363.792 170.839 372.244 183.872C372.244 186.048 372.402 188.222 372.718 190.375C372.856 191.309 373.17 192.223 373.703 193.002C375.286 195.317 378.079 196.167 380.537 195.366L394.176 190.934C397.074 189.993 398.643 186.829 397.572 183.976C396.189 180.29 396.759 175.237 401.61 172.108Z" fill="#F2F2F2"/>
<path d="M433.982 205.958C430.058 205.571 426.708 208.805 426.708 212.748V224.514C426.708 224.819 426.731 225.123 426.777 225.424C427.282 228.703 430.348 230.952 433.627 230.448C452.742 232.803 465.804 224.491 466.59 206.254C466.715 205.998 466.822 205.734 466.91 205.462C467.928 202.311 466.2 198.931 463.048 197.912L451.629 194.201C447.689 192.921 443.594 195.479 442.905 199.564C442.282 203.253 439.847 206.537 433.982 205.958Z" fill="#E6E6E6"/>
<path d="M363.379 217.463C367.343 240.989 387.986 249.915 409.516 251.326C409.938 251.391 410.363 251.423 410.79 251.423C415.433 251.426 419.2 247.663 419.202 243.02V223.346C419.202 217.843 414.692 213.557 409.189 213.501C403.869 213.448 400.402 210.93 398.978 206.308C397.35 201.029 391.55 198.245 386.295 199.952L368.337 205.788C366.011 206.543 364.128 208.273 363.179 210.527C362.235 212.758 362.308 215.29 363.379 217.463Z" fill="#3F3D56"/>
<path d="M474.013 136.112C470.699 132.866 465.381 132.921 462.134 136.235C461.845 136.53 461.578 136.846 461.336 137.18L445.379 159.143C443.339 161.951 444.506 165.864 447.694 167.235C455.164 170.447 454.379 177.657 451.947 182.069C450.755 184.232 451.739 186.938 454.087 187.701L480.976 196.438C485.4 197.866 490.144 195.438 491.572 191.014C491.716 190.569 491.822 190.112 491.89 189.649C492.352 186.57 492.584 183.462 492.584 180.349C497.132 163.387 490.838 147.398 474.013 136.112Z" fill="#0157FF"/>
<path d="M427.837 161.578C430.816 163.256 434.575 162.444 436.585 159.678L441.931 152.321C442.968 150.895 443.329 149.085 442.916 147.37C442.518 145.686 441.401 144.261 439.861 143.472C427.282 132.107 412.393 131.409 399.768 143.414C398.181 144.215 397.026 145.673 396.608 147.401C396.197 149.104 396.554 150.902 397.585 152.319L403.832 160.917C405.977 163.87 410.134 164.643 413.091 162.502C417.387 159.392 423.628 159.209 427.837 161.578Z" fill="#E6E6E6"/>
<path d="M851.034 525.963H0V527.646H851.034V525.963Z" fill="#E6E6E6"/>
<path d="M357.409 309.792C357.889 307.76 360.143 307.092 361.986 307.169C363.15 307.248 364.305 307.43 365.437 307.715C366.621 307.98 367.794 308.294 368.961 308.626C371.101 309.236 373.218 309.974 375.393 310.451C377.217 310.951 379.139 310.979 380.977 310.533C382.746 310.048 384.138 308.682 384.657 306.923C385.185 305.243 384.425 303.426 382.857 302.623C381.406 301.823 379.581 302.351 378.782 303.803C378.77 303.824 378.758 303.845 378.747 303.867C378.075 305.657 378.602 307.676 380.064 308.908C380.813 309.612 381.634 310.235 382.513 310.768C383.405 311.376 384.398 311.82 385.445 312.081C387.226 312.553 389.109 311.818 390.099 310.264C390.296 309.892 390.414 309.484 390.447 309.064C390.499 308.493 389.607 308.496 389.555 309.064C389.405 310.7 387.489 311.464 386.055 311.286C385.088 311.126 384.165 310.767 383.343 310.233C382.55 309.771 381.798 309.24 381.096 308.648C379.881 307.596 378.742 305.866 379.558 304.225C380.193 303.171 381.563 302.83 382.617 303.466C382.758 303.55 382.889 303.65 383.008 303.764C384.284 304.808 384.056 306.701 383.215 307.941C382.204 309.236 380.644 309.98 379.002 309.95C377.271 309.953 375.549 309.683 373.902 309.15C371.847 308.567 369.813 307.914 367.749 307.364C366.577 307.052 365.396 306.771 364.203 306.552C363.075 306.303 361.916 306.223 360.764 306.314C358.82 306.406 357.137 307.697 356.546 309.552C356.417 310.113 357.277 310.351 357.409 309.792Z" fill="#3F3D56"/>
<path d="M392.727 286.541C392.996 286.541 393.214 287.312 393.214 288.264V291.71C393.214 292.661 392.996 293.433 392.727 293.433H354.259C353.99 293.433 353.772 292.662 353.772 291.71V288.264C353.772 287.312 353.99 286.541 354.259 286.541H392.727Z" fill="#E6E6E6"/>
<path d="M495.595 286.541C495.864 286.541 496.082 287.312 496.082 288.264V291.71C496.082 292.661 495.864 293.433 495.595 293.433H457.127C456.858 293.433 456.64 292.662 456.64 291.71V288.264C456.64 287.312 456.858 286.541 457.127 286.541H495.595Z" fill="#E6E6E6"/>
<path d="M478.467 305.951L470.831 308.475L467.013 309.737C465.84 310.238 464.571 310.471 463.297 310.42C462.356 310.357 461.53 309.772 461.159 308.905C460.996 308.036 461.37 307.154 462.107 306.666C463.929 305.28 466.233 306.691 467.525 308.126C469.104 309.882 469.998 312.149 471.479 313.987C472.797 315.637 474.469 316.97 476.371 317.887C480.172 319.772 484.706 319.385 488.131 316.882C492.156 313.777 492.567 308.395 492.588 303.7C492.572 303.249 492.194 302.896 491.743 302.912C491.314 302.927 490.97 303.271 490.955 303.7C490.936 307.955 490.694 313.171 486.814 315.834C483.097 318.385 478.214 317.708 474.791 314.99C473.027 313.42 471.56 311.545 470.459 309.456C469.237 307.456 467.72 305.525 465.42 304.749C463.387 304.01 461.114 304.805 459.983 306.649C459.009 308.29 459.549 310.409 461.189 311.384C461.316 311.459 461.448 311.526 461.583 311.585C464.25 312.856 467.301 311.367 469.868 310.518L478.904 307.532C479.897 307.204 479.472 305.626 478.47 305.957L478.467 305.951Z" fill="#6C63FF"/>
<path d="M139.147 496C139.048 495.913 138.971 495.867 138.919 495.868C137.673 495.879 136.563 496.532 135.952 497.614L122.538 522.525C122.231 523.067 122.081 523.66 122.086 524.252C122.091 524.843 122.252 525.434 122.568 525.971C123.2 527.044 152.824 527.43 152.824 527.43C154.07 527.419 157.489 512.093 139.147 496Z" fill="#E6E6E6"/>
<path d="M87.8798 521.394L98.0609 521.304L102.561 481.992L87.5349 482.124L87.8798 521.394Z" fill="#FFB6B6"/>
<path d="M122.76 520.859C123.081 521.39 123.264 523.112 123.269 523.733C123.286 525.641 121.752 527.202 119.844 527.218L88.3138 527.493C87.0119 527.505 85.9473 526.459 85.9359 525.157L85.9244 523.844C85.9244 523.844 84.3303 519.912 87.499 515.021C87.499 515.021 91.5234 518.794 97.4352 512.778L99.166 509.577L111.978 518.776L119.041 519.583C120.587 519.76 121.954 519.528 122.76 520.859Z" fill="#2F2E41"/>
<path d="M126.613 487.453L136.286 490.629L153.141 454.828L138.863 450.141L126.613 487.453Z" fill="#FFB6B6"/>
<path d="M159.827 498.117C159.961 498.724 159.583 500.413 159.389 501.003C158.794 502.816 156.841 503.803 155.028 503.208L125.071 493.37C123.834 492.964 123.16 491.632 123.566 490.395L123.976 489.148C123.976 489.148 123.725 484.913 128.293 481.294C128.293 481.294 130.897 486.157 138.424 482.352L141.089 479.874L150.28 492.691L156.713 495.718C158.121 496.38 159.49 496.599 159.827 498.117Z" fill="#2F2E41"/>
<path d="M140.272 259.507L160.613 324.728L184.459 383.344L148.314 467.689L128.202 459.853L146.202 386.853L115.433 332.347L100.891 495.971L83.202 493.853L60.202 297.853L63.8092 255.231L140.272 259.507Z" fill="#2F2E41"/>
<path d="M119.46 111.005L97.482 105.7L91.419 120.1C91.419 120.1 61.72 125.117 60.202 147.853C60.202 147.853 54.283 177.698 58.072 186.035C61.861 194.372 71.202 223.853 71.202 223.853C71.202 223.853 56.412 260.583 60.202 262.853C63.992 265.123 145.202 273.4 145.202 268.853C145.202 264.306 146.129 210.283 146.129 210.283L142.949 128.433L122.492 120.858L119.46 111.005Z" fill="#E6E6E6"/>
<path d="M115.74 107.343C127.972 107.343 137.888 97.4272 137.888 85.1955C137.888 72.9638 127.972 63.0481 115.74 63.0481C103.509 63.0481 93.5929 72.9638 93.5929 85.1955C93.5929 97.4272 103.509 107.343 115.74 107.343Z" fill="#FFB6B6"/>
<path d="M101.075 88.4877C102.843 89.4546 101.168 94.0745 102.272 94.4735C103.549 94.9347 108.203 89.6342 108.258 83.6991C108.275 81.9028 107.861 81.0404 108.258 78.9105C108.777 76.1244 110.372 72.838 111.85 72.9247C112.725 72.9761 113.581 74.214 113.645 75.319C113.735 76.8677 112.231 77.4778 112.448 78.3119C112.862 79.9007 119.179 80.9956 121.427 78.3119C123.189 76.208 121.836 72.5155 122.624 72.3261C123.205 72.1865 123.83 74.2195 126.216 76.5162C127.115 77.3815 128.451 78.6683 129.208 78.3119C130.302 77.7969 129.506 74.1701 129.807 74.1219C130.056 74.082 130.213 76.6313 131.603 78.9105C133.388 81.8387 137.069 84.0948 138.786 83.1006C139.838 82.4914 139.92 80.7964 139.983 79.5091C140.115 76.797 144.054 70.5575 143.033 67.6566C140.956 61.7525 137.402 65.916 135.793 63.946C133.615 61.2791 131.662 62.714 128.011 59.756C124.445 56.8662 124.413 53.9606 122.026 53.7702C119.875 53.5987 119.112 55.8924 116.638 55.5659C114.543 55.2893 114.087 53.5106 112.448 53.7702C110.948 54.0078 110.85 55.5749 108.857 56.1645C107.584 56.5409 107.305 55.9968 105.864 56.1645C102.866 56.5134 100.854 59.2444 100.477 59.756C99.0233 61.7281 99.5878 62.5594 98.0823 64.5446C96.7841 66.2566 93.9058 65.5308 92.8239 66.3859C89.2889 69.1803 87.7714 74.332 87.7427 80.203C87.7227 84.3093 88.2589 86.3839 89.4553 91.5666C90.3639 95.502 94.5677 100.586 96.8852 102.854C97.5072 103.462 99.2511 105.168 100.477 104.649C101.638 104.158 101.672 101.948 101.674 101.656C101.679 100.653 101.411 99.4118 99.2795 96.2693C97.0405 92.9683 96.1513 92.5918 96.2866 91.4806C96.5258 89.5165 99.6663 87.717 101.075 88.4877Z" fill="#2F2E41"/>
<path d="M38.4449 309.396C37.6736 315.836 40.3706 321.455 44.4688 321.946C48.5671 322.436 52.5146 317.614 53.2858 311.174C53.6234 308.354 53.2964 305.693 52.4782 303.55L55.404 276.22L42.5498 275.121L41.0299 302.179C39.7288 304.068 38.7825 306.577 38.4449 309.396Z" fill="#FFB6B6"/>
<path d="M75.4576 127.902C75.4576 127.902 68.7979 127.994 64.3853 136.604C62.0406 141.18 46.7993 223.189 46.7993 223.189L42.5175 249.126L44.7181 253.416C41.22 258.767 40.2569 265.386 42.0857 271.512L37.9022 296.853L57.5739 296.959L72.9257 230.574L85.834 192.074L75.4576 127.902Z" fill="#E6E6E6"/>
<path d="M175.959 308.396C176.731 314.836 174.034 320.455 169.935 320.946C165.837 321.436 161.89 316.614 161.118 310.174C160.781 307.354 161.108 304.693 161.926 302.55L159 275.22L171.854 274.121L173.374 301.179C174.675 303.068 175.622 305.577 175.959 308.396Z" fill="#FFB6B6"/>
<path d="M138.946 126.902C138.946 126.902 145.606 126.994 150.019 135.604C152.363 140.18 167.605 222.189 167.605 222.189L171.887 248.126L169.686 252.416C173.184 257.767 174.147 264.386 172.318 270.512L176.502 295.853L156.83 295.959L141.478 229.574L128.57 191.074L138.946 126.902Z" fill="#E6E6E6"/>
<path d="M740.825 91.8672C741.641 93.2046 745.975 88.3118 752.631 87.7722C754.326 87.6314 758.146 94.1196 762.528 94.2134C765.433 94.2721 767.221 94.2486 770.797 94.2134C775.024 94.1665 776.181 94.0727 776.998 93.0403C778.579 91.0343 777.277 87.468 778.031 87.1747C778.662 86.9284 780.295 89.1338 781.132 91.8672C782.889 97.6038 776.584 105.593 775.964 112.983C775.303 120.949 781.814 105.686 781.132 112.983C780.367 121.195 777.628 120.573 777.659 123.541C777.669 123.987 777.783 124.374 778.031 124.715C778.248 125.02 778.465 125.137 782.165 125.888C786.589 126.791 788.811 127.237 789.4 127.061C790.919 126.615 792.459 124.14 793.534 122.368C795.312 119.471 794.051 122.392 793.534 118.849C793.038 115.423 791.488 114.978 791.467 111.81C791.446 107.822 793.896 106.613 795.601 102.425C798.753 94.6827 795.673 85.7201 794.568 82.4823C794.036 80.9295 793.073 78.9643 791.385 75.7174C790.029 73.1108 788.23 70.8146 786.036 69.0941C782.748 66.5154 778.929 64.7486 774.8 64.0485C772.538 63.665 770.232 63.8664 768.008 64.4728L762.248 66.0438C759.827 66.7041 757.544 67.9009 755.532 69.5654C753.656 69.5724 752.03 70.9486 751.386 72.9486C751.319 73.1579 751.258 73.2799 751.208 73.262C740.825 69.578 740.832 80.4893 740.945 87.3055C740.957 88.0032 740.935 88.6206 740.856 89.1221V89.1573C740.649 90.5063 740.597 91.4918 740.825 91.8672Z" fill="#2F2E41"/>
<path d="M605.856 152.128H496.548V154.128H605.856V152.128Z" fill="#3F3D56"/>
<path d="M627.856 166.099C620.136 166.099 613.856 159.818 613.856 152.099C613.856 144.379 620.136 138.099 627.856 138.099C635.575 138.099 641.856 144.379 641.856 152.099C641.856 159.818 635.575 166.099 627.856 166.099ZM627.856 140.099C621.239 140.099 615.856 145.482 615.856 152.099C615.856 158.715 621.239 164.099 627.856 164.099C634.472 164.099 639.856 158.715 639.856 152.099C639.856 145.482 634.472 140.099 627.856 140.099Z" fill="#3F3D56"/>
<path d="M627.856 159.099C631.722 159.099 634.856 155.965 634.856 152.099C634.856 148.233 631.722 145.099 627.856 145.099C623.99 145.099 620.856 148.233 620.856 152.099C620.856 155.965 623.99 159.099 627.856 159.099Z" fill="#0157FF"/>
<path d="M356.163 226.128H246.856V228.128H356.163V226.128Z" fill="#3F3D56"/>
<path d="M210.856 226.099C210.856 218.379 217.136 212.099 224.856 212.099C232.575 212.099 238.856 218.379 238.856 226.099C238.856 233.818 232.575 240.099 224.856 240.099C217.136 240.099 210.856 233.818 210.856 226.099ZM212.856 226.099C212.856 232.715 218.239 238.099 224.856 238.099C231.472 238.099 236.856 232.715 236.856 226.099C236.856 219.482 231.472 214.099 224.856 214.099C218.239 214.099 212.856 219.482 212.856 226.099Z" fill="#3F3D56"/>
<path d="M224.856 233.099C228.722 233.099 231.856 229.965 231.856 226.099C231.856 222.233 228.722 219.099 224.856 219.099C220.99 219.099 217.856 222.233 217.856 226.099C217.856 229.965 220.99 233.099 224.856 233.099Z" fill="#0157FF"/>
</g>
<defs>
<clipPath id="clip0_3_5">
<rect width="851.034" height="527.71" fill="white"/>
</clipPath>
</defs>
</svg>
