<svg width="764" height="459" viewBox="0 0 764 459" fill="none" xmlns="http://www.w3.org/2000/svg">
<g clip-path="url(#clip0_3_89)">
<path d="M48 96.5C38.5065 96.5 29.2262 93.6849 21.3327 88.4106C13.4391 83.1363 7.28681 75.6397 3.6538 66.8688C0.0207977 58.098 -0.929762 48.4468 0.922328 39.1357C2.77442 29.8246 7.34599 21.2718 14.0589 14.5589C20.7718 7.84597 29.3246 3.27442 38.6357 1.42233C47.9468 -0.429762 57.598 0.520798 66.3688 4.1538C75.1397 7.78681 82.6363 13.9391 87.9106 21.8327C93.1849 29.7262 96 39.0065 96 48.5C95.9856 61.226 90.9239 73.4266 81.9253 82.4253C72.9266 91.4239 60.726 96.4856 48 96.5ZM48 2.50003C38.9021 2.50003 30.0085 5.19788 22.4438 10.2524C14.8791 15.307 8.9832 22.4912 5.50157 30.8966C2.01994 39.302 1.10899 48.5511 2.88391 57.4742C4.65883 66.3973 9.03989 74.5937 15.4731 81.0269C21.9063 87.4602 30.1027 91.8412 39.0259 93.6161C47.949 95.3911 57.1981 94.4801 65.6035 90.9985C74.0089 87.5168 81.1931 81.6209 86.2476 74.0563C91.3022 66.4916 94 57.598 94 48.5C93.9862 36.3043 89.1354 24.6121 80.5117 15.9884C71.888 7.36471 60.1957 2.51385 48 2.50003Z" fill="#F2F2F2"/>
<path d="M374 68.5C369.253 68.5 364.613 67.0924 360.666 64.4553C356.72 61.8181 353.643 58.0698 351.827 53.6844C350.01 49.299 349.535 44.4734 350.461 39.8179C351.387 35.1623 353.673 30.8859 357.029 27.5294C360.386 24.173 364.662 21.8872 369.318 20.9612C373.973 20.0351 378.799 20.5104 383.184 22.3269C387.57 24.1434 391.318 27.2196 393.955 31.1663C396.592 35.1131 398 39.7533 398 44.5C397.993 50.863 395.462 56.9633 390.963 61.4626C386.463 65.9619 380.363 68.4928 374 68.5ZM374 22.5C369.649 22.5 365.395 23.7903 361.777 26.2077C358.16 28.6251 355.34 32.061 353.675 36.081C352.01 40.101 351.574 44.5244 352.423 48.792C353.272 53.0596 355.367 56.9796 358.444 60.0563C361.52 63.1331 365.44 65.2284 369.708 66.0773C373.976 66.9262 378.399 66.4905 382.419 64.8254C386.439 63.1602 389.875 60.3404 392.292 56.7225C394.71 53.1047 396 48.8512 396 44.5C395.993 38.6673 393.673 33.0753 389.549 28.9509C385.425 24.8266 379.833 22.5066 374 22.5Z" fill="#F2F2F2"/>
<path d="M543 185.5C537.66 185.5 532.44 183.916 528 180.95C523.559 177.983 520.099 173.766 518.055 168.832C516.012 163.899 515.477 158.47 516.519 153.233C517.561 147.995 520.132 143.184 523.908 139.408C527.684 135.632 532.495 133.061 537.733 132.019C542.97 130.977 548.399 131.512 553.332 133.555C558.266 135.599 562.483 139.059 565.45 143.5C568.416 147.94 570 153.16 570 158.5C569.992 165.658 567.145 172.521 562.083 177.583C557.021 182.645 550.158 185.492 543 185.5ZM543 133.5C538.055 133.5 533.222 134.966 529.111 137.713C525 140.46 521.795 144.365 519.903 148.933C518.011 153.501 517.516 158.528 518.48 163.377C519.445 168.227 521.826 172.681 525.322 176.178C528.819 179.674 533.273 182.055 538.123 183.02C542.972 183.984 547.999 183.489 552.567 181.597C557.135 179.705 561.04 176.5 563.787 172.389C566.534 168.278 568 163.445 568 158.5C567.993 151.872 565.356 145.517 560.669 140.831C555.983 136.144 549.628 133.507 543 133.5Z" fill="#F2F2F2"/>
<path d="M762.057 458.5H537.057C536.792 458.5 536.537 458.395 536.35 458.207C536.162 458.02 536.057 457.765 536.057 457.5C536.057 457.235 536.162 456.98 536.35 456.793C536.537 456.605 536.792 456.5 537.057 456.5H762.057C762.322 456.5 762.577 456.605 762.764 456.793C762.952 456.98 763.057 457.235 763.057 457.5C763.057 457.765 762.952 458.02 762.764 458.207C762.577 458.395 762.322 458.5 762.057 458.5Z" fill="#CCCCCC"/>
<path d="M640.917 153.747C654.482 153.747 665.478 142.751 665.478 129.186C665.478 115.621 654.482 104.625 640.917 104.625C627.352 104.625 616.356 115.621 616.356 129.186C616.356 142.751 627.352 153.747 640.917 153.747Z" fill="#FFB8B8"/>
<path d="M643.465 420.843L631.857 424.785L611.124 381.886L628.257 376.067L643.465 420.843Z" fill="#FFB8B8"/>
<path d="M622.439 424.285L644.826 416.681L649.614 430.777L613.13 443.169C612.502 441.318 612.244 439.361 612.371 437.41C612.499 435.459 613.009 433.553 613.874 431.799C614.738 430.046 615.939 428.479 617.409 427.19C618.878 425.901 620.588 424.914 622.439 424.285Z" fill="#2F2E41"/>
<path d="M669.694 445.075L657.45 445.69L649.249 398.755L667.321 397.846L669.694 445.075Z" fill="#FFB8B8"/>
<path d="M648.528 442.631L672.142 441.444L672.889 456.312L634.407 458.246C634.309 456.294 634.596 454.341 635.253 452.5C635.91 450.658 636.922 448.964 638.234 447.514C639.545 446.064 641.129 444.887 642.895 444.049C644.661 443.211 646.576 442.729 648.528 442.631Z" fill="#2F2E41"/>
<path d="M596.829 289.13C597.927 288.152 598.797 286.946 599.378 285.595C599.96 284.245 600.238 282.784 600.193 281.314C600.149 279.845 599.782 278.403 599.12 277.091C598.458 275.778 597.516 274.627 596.361 273.718L608.035 239.943L590.044 244.541L581.716 275.909C580.317 277.951 579.716 280.435 580.027 282.89C580.337 285.346 581.537 287.602 583.4 289.232C585.263 290.862 587.659 291.751 590.134 291.732C592.609 291.714 594.991 290.788 596.829 289.13Z" fill="#FFB8B8"/>
<path d="M668.55 430.924C668.391 430.924 668.233 430.915 668.076 430.898L651.455 429.139C650.434 429.036 649.479 428.584 648.751 427.861C648.023 427.137 647.566 426.186 647.457 425.165L634.612 310.655L625.318 341.99L642.647 403.573C642.823 404.2 642.861 404.858 642.758 405.502C642.656 406.145 642.414 406.758 642.051 407.299C641.688 407.841 641.212 408.296 640.656 408.635C640.099 408.974 639.476 409.188 638.829 409.263L621.981 411.199C620.908 411.318 619.828 411.049 618.936 410.441C618.044 409.833 617.399 408.926 617.118 407.884L598.709 338.581C598.557 338.011 598.52 337.417 598.598 336.833L606.872 274.634L668.586 279.583L673.048 426.286C673.066 426.888 672.964 427.488 672.746 428.05C672.528 428.612 672.2 429.124 671.78 429.557C671.361 429.989 670.859 430.333 670.304 430.568C669.749 430.803 669.152 430.924 668.55 430.924Z" fill="#2F2E41"/>
<path d="M647.217 290.219C626.541 290.219 603.132 282.23 601.715 281.739L601.305 281.597L624.629 161.913L625.059 161.931C634.302 162.306 659.528 162.498 659.782 162.5L660.234 162.503L669.957 268.122L671.695 283.571L671.482 283.743C665.534 288.552 656.661 290.219 647.217 290.219Z" fill="#0157FF"/>
<path d="M609.864 279.875L595.275 273.999L602.711 184.055C602.89 181.838 603.565 179.689 604.685 177.767C605.806 175.845 607.344 174.199 609.185 172.952L616.862 167.727C616.645 166.988 616.606 166.209 616.749 165.452C616.891 164.695 617.211 163.983 617.682 163.374C618.153 162.765 618.762 162.277 619.459 161.949C620.155 161.621 620.92 161.462 621.689 161.487L623.888 161.558C624.306 161.276 624.799 161.127 625.304 161.131C625.808 161.135 626.299 161.29 626.713 161.578C627.127 161.866 627.444 162.272 627.623 162.743C627.802 163.214 627.834 163.729 627.715 164.219L627.232 173.748L609.864 279.875Z" fill="#2F2E41"/>
<path d="M602.503 263.751L583.454 262.949L589.625 223.256L594.738 185.907C594.838 184.566 595.241 183.265 595.915 182.102C596.589 180.938 597.517 179.941 598.631 179.187C599.744 178.432 601.014 177.939 602.344 177.745C603.675 177.55 605.033 177.658 606.315 178.062C608.314 178.689 610.027 179.999 611.156 181.763C612.285 183.527 612.757 185.632 612.49 187.709L607.31 228.176L602.503 263.751Z" fill="#2F2E41"/>
<path d="M632.665 281.251L632.535 280.85C632.447 280.576 623.862 253.038 638.227 220.178L645.43 184.352L651.585 161.857C651.701 161.455 651.908 161.086 652.191 160.778C652.475 160.47 652.826 160.233 653.217 160.085C653.676 159.925 654.172 159.905 654.643 160.026C655.114 160.147 655.539 160.404 655.865 160.765C660.156 159.506 664.768 159.967 668.725 162.051L677.369 166.605C679.292 167.617 680.824 169.239 681.725 171.216C682.627 173.192 682.847 175.412 682.351 177.528L670.536 227.951L676.279 275.048L632.665 281.251Z" fill="#2F2E41"/>
<path d="M645.245 261.838C646.706 261.996 648.185 261.833 649.576 261.358C650.968 260.884 652.238 260.11 653.298 259.091C654.358 258.073 655.182 256.834 655.711 255.463C656.241 254.091 656.463 252.62 656.363 251.154L683.119 231.333L673.766 226.899L644.915 241.761C642.462 242.093 640.216 243.313 638.603 245.19C636.99 247.068 636.122 249.471 636.162 251.946C636.203 254.421 637.15 256.795 638.824 258.618C640.498 260.441 642.783 261.587 645.245 261.838Z" fill="#FFB8B8"/>
<path d="M662.019 252.965L652.982 236.096L675.27 221.428L664.394 182.419C663.958 180.857 663.849 179.222 664.074 177.616C664.298 176.01 664.851 174.468 665.699 173.085C666.546 171.703 667.67 170.51 668.999 169.581C670.328 168.653 671.834 168.008 673.423 167.687C676.232 167.127 679.149 167.606 681.632 169.034C684.114 170.462 685.995 172.742 686.923 175.451L701.598 218.587C701.901 219.475 701.918 220.437 701.647 221.335C701.376 222.234 700.83 223.026 700.087 223.599L662.019 252.965Z" fill="#2F2E41"/>
<path d="M642.655 134.395C639.711 134.778 637.49 131.766 636.46 128.981C635.43 126.196 634.645 122.955 632.085 121.45C628.588 119.395 624.113 121.867 620.114 121.189C615.597 120.423 612.661 115.637 612.431 111.062C612.201 106.486 614.021 102.086 615.808 97.868L616.431 103.11C616.348 101.333 616.722 99.565 617.517 97.9741C618.313 96.3831 619.503 95.0229 620.974 94.0234L620.171 101.716C620.342 100.654 620.721 99.6374 621.286 98.7229C621.851 97.8085 622.591 97.0147 623.464 96.387C624.336 95.7593 625.324 95.3101 626.371 95.0653C627.418 94.8204 628.502 94.7847 629.563 94.9601L629.436 99.5434C634.653 98.9231 639.915 98.302 645.147 98.7745C650.379 99.2471 655.647 100.902 659.613 104.348C665.544 109.502 667.711 117.989 666.983 125.813C666.256 133.638 663.026 140.988 659.66 148.089C658.813 149.875 657.642 151.891 655.678 152.119C653.913 152.323 652.298 150.848 651.75 149.158C651.327 147.425 651.343 145.613 651.797 143.887C652.294 141.25 652.919 138.554 652.453 135.912C651.986 133.269 650.085 130.658 647.421 130.334C644.757 130.01 642.031 133.055 643.312 135.413L642.655 134.395Z" fill="#2F2E41"/>
<path d="M321.31 404.077L311.749 400.052L305.191 352.124H217.851L210.742 399.856L202.188 404.133C201.779 404.337 201.451 404.674 201.257 405.089C201.063 405.503 201.014 405.971 201.12 406.416C201.225 406.861 201.477 407.258 201.836 407.542C202.195 407.826 202.639 407.98 203.096 407.98H320.522C320.991 407.98 321.445 407.818 321.808 407.521C322.171 407.224 322.42 406.811 322.513 406.351C322.606 405.892 322.537 405.414 322.317 405C322.098 404.585 321.742 404.259 321.31 404.077Z" fill="#E6E6E6"/>
<path d="M476.519 358.5H47.481C45.2299 358.495 43.0728 357.597 41.4829 356.004C39.8929 354.41 39 352.251 39 350V289.5H485V350C485 352.251 484.107 354.41 482.517 356.004C480.927 357.597 478.77 358.495 476.519 358.5Z" fill="#CCCCCC"/>
<path d="M485.448 318.094H38.6084V59.2271C38.6115 56.5104 39.6922 53.9059 41.6132 51.985C43.5342 50.064 46.1387 48.9835 48.8554 48.9805H475.201C477.918 48.9835 480.523 50.0641 482.444 51.985C484.365 53.9059 485.445 56.5104 485.448 59.2271V318.094Z" fill="#3F3D56"/>
<path d="M458.76 299.305H65.2964C63.202 299.303 61.1941 298.47 59.7131 296.989C58.2321 295.508 57.3991 293.5 57.3967 291.406V75.6685C57.3991 73.574 58.2321 71.5661 59.713 70.0851C61.194 68.604 63.202 67.771 65.2964 67.7686H458.76C460.855 67.771 462.863 68.604 464.344 70.0851C465.825 71.5661 466.658 73.574 466.66 75.6685V291.406C466.658 293.5 465.825 295.508 464.344 296.989C462.863 298.47 460.855 299.303 458.76 299.305Z" fill="white"/>
<path d="M455.057 408.48H74.0569C73.7917 408.48 73.5373 408.375 73.3498 408.188C73.1622 408 73.0569 407.746 73.0569 407.48C73.0569 407.215 73.1622 406.961 73.3498 406.773C73.5373 406.586 73.7917 406.48 74.0569 406.48H455.057C455.322 406.48 455.576 406.586 455.764 406.773C455.952 406.961 456.057 407.215 456.057 407.48C456.057 407.746 455.952 408 455.764 408.188C455.576 408.375 455.322 408.48 455.057 408.48Z" fill="#CCCCCC"/>
<path d="M421.796 272.5H102.261C101.996 272.5 101.741 272.395 101.554 272.207C101.366 272.02 101.261 271.765 101.261 271.5V118.347C101.261 118.081 101.366 117.827 101.554 117.64C101.741 117.452 101.996 117.347 102.261 117.347C102.526 117.347 102.78 117.452 102.968 117.64C103.155 117.827 103.261 118.081 103.261 118.347V270.5H421.796C422.061 270.5 422.316 270.605 422.503 270.793C422.691 270.98 422.796 271.235 422.796 271.5C422.796 271.765 422.691 272.02 422.503 272.207C422.316 272.395 422.061 272.5 421.796 272.5Z" fill="#3F3D56"/>
<path d="M170.531 261.5H141.469C140.682 261.499 139.927 261.186 139.371 260.63C138.814 260.073 138.501 259.319 138.5 258.532V218.468C138.501 217.681 138.814 216.927 139.371 216.37C139.927 215.814 140.682 215.501 141.469 215.5H170.531C171.318 215.501 172.073 215.814 172.629 216.37C173.186 216.927 173.499 217.681 173.5 218.468V258.532C173.499 259.319 173.186 260.073 172.629 260.63C172.073 261.186 171.318 261.499 170.531 261.5Z" fill="#0157FF"/>
<path d="M223.531 261.5H194.469C193.682 261.499 192.927 261.186 192.371 260.63C191.814 260.073 191.501 259.319 191.5 258.532V180.468C191.501 179.681 191.814 178.927 192.371 178.37C192.927 177.814 193.682 177.501 194.469 177.5H223.531C224.318 177.501 225.073 177.814 225.629 178.37C226.186 178.927 226.499 179.681 226.5 180.468V258.532C226.499 259.319 226.186 260.073 225.629 260.63C225.073 261.186 224.318 261.499 223.531 261.5Z" fill="#0157FF"/>
<path d="M276.531 261.5H247.469C246.682 261.499 245.927 261.186 245.371 260.63C244.814 260.073 244.501 259.319 244.5 258.532V218.468C244.501 217.681 244.814 216.927 245.371 216.37C245.927 215.814 246.682 215.501 247.469 215.5H276.531C277.318 215.501 278.073 215.814 278.629 216.37C279.186 216.927 279.499 217.681 279.5 218.468V258.532C279.499 259.319 279.186 260.073 278.629 260.63C278.073 261.186 277.318 261.499 276.531 261.5Z" fill="#0157FF"/>
<path d="M329.531 261.5H300.469C299.699 261.517 298.955 261.228 298.399 260.697C297.842 260.165 297.519 259.435 297.5 258.666V165.334C297.519 164.565 297.842 163.835 298.399 163.304C298.955 162.773 299.699 162.484 300.469 162.5H329.531C330.301 162.484 331.045 162.773 331.601 163.304C332.158 163.835 332.481 164.565 332.5 165.334V258.666C332.481 259.435 332.158 260.165 331.601 260.697C331.045 261.228 330.301 261.517 329.531 261.5Z" fill="#0157FF"/>
<path d="M382.531 261.5H353.469C352.682 261.499 351.927 261.186 351.37 260.63C350.814 260.073 350.501 259.319 350.5 258.532V138.468C350.501 137.681 350.814 136.927 351.37 136.37C351.927 135.814 352.682 135.501 353.469 135.5H382.531C383.318 135.501 384.073 135.814 384.63 136.37C385.186 136.927 385.499 137.681 385.5 138.468V258.532C385.499 259.319 385.186 260.073 384.63 260.63C384.073 261.186 383.318 261.499 382.531 261.5Z" fill="#0157FF"/>
<path d="M156 203.5C159.314 203.5 162 200.814 162 197.5C162 194.186 159.314 191.5 156 191.5C152.686 191.5 150 194.186 150 197.5C150 200.814 152.686 203.5 156 203.5Z" fill="#3F3D56"/>
<path d="M209 164.5C212.314 164.5 215 161.814 215 158.5C215 155.186 212.314 152.5 209 152.5C205.686 152.5 203 155.186 203 158.5C203 161.814 205.686 164.5 209 164.5Z" fill="#3F3D56"/>
<path d="M262 203.5C265.314 203.5 268 200.814 268 197.5C268 194.186 265.314 191.5 262 191.5C258.686 191.5 256 194.186 256 197.5C256 200.814 258.686 203.5 262 203.5Z" fill="#3F3D56"/>
<path d="M315 145.5C318.314 145.5 321 142.814 321 139.5C321 136.186 318.314 133.5 315 133.5C311.686 133.5 309 136.186 309 139.5C309 142.814 311.686 145.5 315 145.5Z" fill="#3F3D56"/>
<path d="M368 123.5C371.314 123.5 374 120.814 374 117.5C374 114.186 371.314 111.5 368 111.5C364.686 111.5 362 114.186 362 117.5C362 120.814 364.686 123.5 368 123.5Z" fill="#3F3D56"/>
<path d="M262.126 198.844L209 159.052L156.6 198.3L155.4 196.7L209 156.553L261.874 196.156L314.415 138.658L314.626 138.572L367.626 117.218L368.374 119.073L315.585 140.342L262.126 198.844Z" fill="#3F3D56"/>
</g>
<defs>
<clipPath id="clip0_3_89">
<rect width="763.057" height="458" fill="white" transform="translate(0 0.5)"/>
</clipPath>
</defs>
</svg>
