<?xml version="1.0" encoding="UTF-8"?>
<svg version="1.1" xmlns="http://www.w3.org/2000/svg" width="500" height="500">
<path d="M0 0 C165 0 330 0 500 0 C500 165 500 330 500 500 C335 500 170 500 0 500 C0 335 0 170 0 0 Z " fill="rgba(0,0,0,0)" transform="translate(0,0)"/>
<path d="M0 0 C8.80743589 7.77126697 16.07795965 21.26605503 17.19287109 33.03613281 C18.20231763 60.18718559 7.45397148 81.84320981 -10.8125 101.6953125 C-13.81521625 104.85888855 -16.87089061 107.96144361 -20 111 C0.19039765 98.56388551 13.57861302 79.68608425 20 57 C23.04501518 60.04501518 22.29363761 63.05467491 22.32226562 67.21875 C22.31743164 68.84296875 22.31743164 68.84296875 22.3125 70.5 C22.32861328 71.551875 22.34472656 72.60375 22.36132812 73.6875 C22.37077415 88.95227784 16.11637652 101.70230563 6 113 C-3.56325944 122.54329439 -15.09708526 128.8898371 -27 135 C-8.15953163 128.76062411 6.66789544 119.81538097 18 103 C18.33 103 18.66 103 19 103 C19.78069114 111.3924298 17.18540515 120.44428271 12.3125 127.3125 C11.24309238 128.57202454 10.13713082 129.8012639 9 131 C8.39800781 131.65355469 7.79601562 132.30710937 7.17578125 132.98046875 C1.49742149 138.57230113 -5.00514729 141.79552405 -12.1328125 145.140625 C-18.90487509 148.09038016 -18.90487509 148.09038016 -24.375 152.75 C-25.3166623 156.13998427 -25.64992135 159.49921353 -26 163 C-38.61241506 157.06649977 -45.35116548 148.38271734 -50.3125 135.625 C-52.00572568 126.6970828 -51.96374524 118.8177846 -47 111 C-43.88634569 107.46120599 -40.54955712 104.21464951 -37.12548828 100.97900391 C-18.15822543 82.9917258 1.09078984 60.62631481 2.10864258 33.05737305 C2.17059209 29.57927747 2.18561354 26.10362931 2.1875 22.625 C2.20586914 20.85382813 2.20586914 20.85382813 2.22460938 19.046875 C2.23576866 12.36618314 1.74808489 6.45340429 0 0 Z " fill="#D5D5D5" transform="translate(274,140)"/>
<path d="M0 0 C2.4073459 2.4073459 2.37394558 3.18056702 2.5 6.5 C2.44928064 10.9125847 1.4453781 13.35500246 -1 17 C-5.04518699 23.10109379 -4.55217367 27.8614862 -3.61328125 34.8984375 C-2.67969118 42.38723529 -2.67969118 42.38723529 -4.4375 45.75 C-5.283125 46.4925 -6.12875 47.235 -7 48 C-7.91072266 48.82757813 -7.91072266 48.82757813 -8.83984375 49.671875 C-11.84789572 52.37392552 -14.90482007 54.92766325 -18.125 57.375 C-23.40970629 62.20016661 -27.21174491 68.02580514 -29 75 C-29.33 75 -29.66 75 -30 75 C-30.08159574 70.83861737 -29.98248524 67.0527516 -29 63 C-30.81242323 67.0188515 -32.33501617 70.61110675 -33 75 C-33.33 75 -33.66 75 -34 75 C-36.66647106 63.94390047 -35.95098419 52.22138671 -31 42 C-30.69191406 41.34 -30.38382813 40.68 -30.06640625 40 C-29.41282348 38.64905379 -28.71362831 37.32021238 -28 36 C-33.9324918 37.00193195 -38.07315626 38.3635201 -43 42 C-44.485 42.495 -44.485 42.495 -46 43 C-47.56935594 39.86128812 -47.35201103 37.46144178 -47 34 C-44.6828669 31.15323648 -42.28193661 29.20325663 -39.3125 27.0625 C-36.74062319 25.15797016 -36.74062319 25.15797016 -36.25 22 C-34.84455237 18.6269257 -34.47102196 18.39030247 -31.3125 16.9375 C-27.73196426 15.52961944 -24.08053999 14.39635848 -20.40991211 13.24804688 C-11.79825508 10.52779081 -5.34722142 7.4893312 0 0 Z " fill="#E81B23" transform="translate(249,184)"/>
<path d="M0 0 C0.95310059 0.01047363 1.90620117 0.02094727 2.88818359 0.03173828 C4.43505859 0.04140625 4.43505859 0.04140625 6.01318359 0.05126953 C7.63353516 0.07640625 7.63353516 0.07640625 9.28662109 0.10205078 C10.37458984 0.11107422 11.46255859 0.12009766 12.58349609 0.12939453 C15.27642261 0.15301669 17.96891365 0.18595522 20.66162109 0.22705078 C20.78662109 2.60205078 20.78662109 2.60205078 20.66162109 5.22705078 C17.72714753 8.16152435 14.47902653 7.68863501 10.53662109 7.85205078 C9.78251953 7.89072266 9.02841797 7.92939453 8.25146484 7.96923828 C6.38858925 8.0635611 4.52513855 8.14639741 2.66162109 8.22705078 C2.33162109 11.19705078 2.00162109 14.16705078 1.66162109 17.22705078 C7.27162109 17.22705078 12.88162109 17.22705078 18.66162109 17.22705078 C17.66162109 23.22705078 17.66162109 23.22705078 16.66162109 24.22705078 C13.79894542 24.30030246 10.9609021 24.31943283 8.09912109 24.28955078 C7.2928125 24.28503906 6.48650391 24.28052734 5.65576172 24.27587891 C3.65768353 24.26405596 1.65964326 24.24611992 -0.33837891 24.22705078 C-0.29712891 25.32017578 -0.25587891 26.41330078 -0.21337891 27.53955078 C-0.33837891 31.22705078 -0.33837891 31.22705078 -2.33837891 34.22705078 C-5.96337891 34.41455078 -5.96337891 34.41455078 -9.33837891 34.22705078 C-9.00837891 33.56705078 -8.67837891 32.90705078 -8.33837891 32.22705078 C-7.99984661 30.00330411 -7.70684832 27.77255629 -7.43603516 25.53955078 C-7.26639278 24.18795317 -7.09646208 22.83639172 -6.92626953 21.48486328 C-6.66176887 19.35212677 -6.3999286 17.21914926 -6.14331055 15.08544922 C-5.89425388 13.02746713 -5.63463821 10.97103422 -5.37353516 8.91455078 C-5.14742554 7.06410156 -5.14742554 7.06410156 -4.91674805 5.17626953 C-4.22675539 1.65786038 -3.68900157 0.35819289 0 0 Z " fill="#D0D0D0" transform="translate(215.33837890625,330.77294921875)"/>
<path d="M0 0 C2.33837891 -0.34057617 2.33837891 -0.34057617 5.2265625 -0.29296875 C6.7734375 -0.2784668 6.7734375 -0.2784668 8.3515625 -0.26367188 C9.43179688 -0.23853516 10.51203125 -0.21339844 11.625 -0.1875 C12.71296875 -0.17396484 13.8009375 -0.16042969 14.921875 -0.14648438 C17.61507409 -0.11104754 20.30729374 -0.06164331 23 0 C23.125 2.375 23.125 2.375 23 5 C21 7 21 7 17.3046875 7.1953125 C15.82799892 7.182009 14.35137642 7.15814835 12.875 7.125 C12.12089844 7.11597656 11.36679688 7.10695313 10.58984375 7.09765625 C8.72642746 7.0740687 6.86317407 7.03819719 5 7 C4.67 10.3 4.34 13.6 4 17 C9.61 17 15.22 17 21 17 C21 18.65 21 20.3 21 22 C19 24 19 24 15.0859375 24.1953125 C13.51550649 24.18200376 11.94513779 24.15813602 10.375 24.125 C9.57320312 24.11597656 8.77140625 24.10695313 7.9453125 24.09765625 C5.96341477 24.07406223 3.98167019 24.03819065 2 24 C2.04125 25.093125 2.0825 26.18625 2.125 27.3125 C2 31 2 31 0 34 C-3.625 34.1875 -3.625 34.1875 -7 34 C-6.7009375 32.74960937 -6.401875 31.49921875 -6.09375 30.2109375 C-4.65635857 23.75026792 -3.9276377 17.21057766 -3.14453125 10.64453125 C-2.96470703 9.23107422 -2.96470703 9.23107422 -2.78125 7.7890625 C-2.67876953 6.94037598 -2.57628906 6.09168945 -2.47070312 5.21728516 C-2 3 -2 3 0 0 Z " fill="#D1D1D1" transform="translate(241,331)"/>
<path d="M0 0 C0.95310059 0.01047363 1.90620117 0.02094727 2.88818359 0.03173828 C4.43505859 0.04140625 4.43505859 0.04140625 6.01318359 0.05126953 C7.63353516 0.07640625 7.63353516 0.07640625 9.28662109 0.10205078 C10.37458984 0.11107422 11.46255859 0.12009766 12.58349609 0.12939453 C15.27642261 0.15301669 17.96891365 0.18595522 20.66162109 0.22705078 C20.78662109 2.60205078 20.78662109 2.60205078 20.66162109 5.22705078 C17.72714753 8.16152435 14.47902653 7.68863501 10.53662109 7.85205078 C9.78251953 7.89072266 9.02841797 7.92939453 8.25146484 7.96923828 C6.38858925 8.0635611 4.52513855 8.14639741 2.66162109 8.22705078 C2.33162109 11.19705078 2.00162109 14.16705078 1.66162109 17.22705078 C7.27162109 17.22705078 12.88162109 17.22705078 18.66162109 17.22705078 C18.66162109 18.87705078 18.66162109 20.52705078 18.66162109 22.22705078 C16.66162109 24.22705078 16.66162109 24.22705078 14.4309082 24.4699707 C13.52606689 24.46586182 12.62122559 24.46175293 11.68896484 24.45751953 C10.70734375 24.45558594 9.72572266 24.45365234 8.71435547 24.45166016 C7.68632812 24.43941406 6.65830078 24.42716797 5.59912109 24.41455078 C4.56722656 24.41390625 3.53533203 24.41326172 2.47216797 24.41259766 C-5.19821894 24.36721075 -5.19821894 24.36721075 -6.33837891 23.22705078 C-6.74540047 16.17201039 -5.91803506 9.11123132 -4.33837891 2.22705078 C-2.33837891 0.22705078 -2.33837891 0.22705078 0 0 Z " fill="#D0D0D0" transform="translate(271.33837890625,330.77294921875)"/>
<path d="M0 0 C6.11097891 0.74072472 10.97445019 3.63800399 15.1875 8 C24.40548576 19.9117135 22.42907989 34.77435119 22 49 C21.67 49 21.34 49 21 49 C20.89042969 48.20078125 20.78085937 47.4015625 20.66796875 46.578125 C18.17591268 29.31607805 14.13841813 15.67916401 1.72265625 2.828125 C0 1 0 1 0 0 Z " fill="#DF1A21" transform="translate(251,129)"/>
<path d="M0 0 C1 2 1 2 0.125 4.6875 C-0.24625 5.780625 -0.6175 6.87375 -1 8 C-1.185625 9.85625 -1.185625 9.85625 -1.375 11.75 C-1.58125 12.8225 -1.7875 13.895 -2 15 C-4.0390625 16.203125 -4.0390625 16.203125 -6 17 C-5.00481422 10.49200879 -3.60861828 5.5332147 0 0 Z " fill="#1B0304" transform="translate(221,244)"/>
<path d="M0 0 C0.66 0.33 1.32 0.66 2 1 C1.67 1.99 1.34 2.98 1 4 C-2.5625 5.1875 -2.5625 5.1875 -6 6 C-5 3 -5 3 -2.5625 1.25 C-1.716875 0.8375 -0.87125 0.425 0 0 Z " fill="#181818" transform="translate(262,266)"/>
<path d="M0 0 C0.33 0.66 0.66 1.32 1 2 C1.66 2.33 2.32 2.66 3 3 C2.01 5.64 1.02 8.28 0 11 C-0.33 11 -0.66 11 -1 11 C-1.14285714 3.57142857 -1.14285714 3.57142857 0 0 Z " fill="#BE161C" transform="translate(220,248)"/>
</svg>
